<?xml version="1.0" encoding="UTF-8"?>
<svg width="82px" height="96px" viewBox="0 0 82 96" version="1.1" xmlns="http://www.w3.org/2000/svg" xmlns:xlink="http://www.w3.org/1999/xlink">
    <!-- Generator: Sketch 41.2 (35397) - http://www.bohemiancoding.com/sketch -->
    <title>avatar</title>
    <desc>Created with Sketch.</desc>
    <defs></defs>
    <g id="Page-1" stroke="none" stroke-width="1" fill="none" fill-rule="evenodd">
        <g id="home-outside-copy" transform="translate(-206.000000, -2575.000000)" stroke-width="2" stroke="#FFFFFF" fill="#413D3B">
            <g id="avatar" transform="translate(207.000000, 2576.000000)">
                <g id="Capa_1">
                    <g id="Group">
                        <path d="M39.649635,50.6393375 L39.9610706,50.6393375 L40.0778589,50.6393375 L40.2725061,50.6393375 C45.9756691,50.542029 50.5888078,48.5374741 53.9951338,44.7035197 C61.4890511,36.2571429 60.243309,21.7776398 60.107056,20.3958592 C59.620438,10.0227743 54.7153285,5.06004141 50.6666667,2.74409938 C47.649635,1.01200828 44.1265207,0.0778467909 40.1946472,0 L40.0583942,0 L39.9805353,0 L39.863747,0 C37.703163,0 33.459854,0.350310559 29.3917275,2.66625259 C25.3041363,4.98219462 20.3211679,9.94492754 19.8345499,20.3958592 C19.6982968,21.7776398 18.4525547,36.2571429 25.946472,44.7035197 C29.3333333,48.5374741 33.946472,50.542029 39.649635,50.6393375 Z M25.0316302,20.8824017 C25.0316302,20.8240166 25.0510949,20.7656315 25.0510949,20.7267081 C25.6934307,6.77267081 35.6009732,5.27412008 39.8442822,5.27412008 L39.9221411,5.27412008 L40.0778589,5.27412008 C45.3333333,5.39089027 54.2676399,7.53167702 54.8710462,20.7267081 C54.8710462,20.7850932 54.8710462,20.8434783 54.8905109,20.8824017 C54.9099757,21.0186335 56.2725061,34.252588 50.0827251,41.2198758 C47.6301703,43.9834369 44.3600973,45.3457557 40.0583942,45.3846791 L39.9610706,45.3846791 L39.9610706,45.3846791 L39.863747,45.3846791 C35.5815085,45.3457557 32.2919708,43.9834369 29.8588808,41.2198758 C23.6885645,34.2915114 25.0121655,20.9991718 25.0316302,20.8824017 Z" id="Shape"></path>
                        <path d="M79.9610706,74.6550725 L79.9610706,74.5966874 C79.9610706,74.4409938 79.9416058,74.2853002 79.9416058,74.1101449 C79.8248175,70.2567288 79.5717762,61.2459627 71.1240876,58.3656315 C71.0656934,58.3461698 70.9878345,58.3267081 70.9294404,58.3072464 C62.1508516,56.0691511 54.8515815,51.0091097 54.7737226,50.9507246 C53.5863747,50.1138716 51.9513382,50.4057971 51.1143552,51.5929607 C50.2773723,52.7801242 50.5693431,54.4149068 51.756691,55.2517598 C52.0875912,55.4853002 59.8345499,60.8761905 69.5279805,63.3672878 C74.0632603,64.9826087 74.5693431,69.8285714 74.7055961,74.2658385 C74.7055961,74.4409938 74.7055961,74.5966874 74.7250608,74.752381 C74.7445255,76.5039337 74.6277372,79.2091097 74.3163017,80.7660455 C71.163017,82.5565217 58.8029197,88.7453416 40,88.7453416 C21.2749392,88.7453416 8.83698297,82.53706 5.66423358,80.7465839 C5.35279805,79.189648 5.21654501,76.484472 5.25547445,74.7329193 C5.25547445,74.5772257 5.27493917,74.4215321 5.27493917,74.2463768 C5.41119221,69.8091097 5.91727494,64.963147 10.4525547,63.3478261 C20.1459854,60.8567288 27.892944,55.4463768 28.2238443,55.2322981 C29.4111922,54.3954451 29.703163,52.7606625 28.86618,51.573499 C28.0291971,50.3863354 26.3941606,50.0944099 25.2068127,50.9312629 C25.1289538,50.989648 17.8686131,56.0496894 9.05109489,58.2877847 C8.97323601,58.3072464 8.91484185,58.3267081 8.85644769,58.3461698 C0.408759124,61.2459627 0.155717762,70.2567288 0.0389294404,74.0906832 C0.0389294404,74.2658385 0.0389294404,74.4215321 0.0194647202,74.5772257 L0.0194647202,74.6356108 C3.70165704e-13,75.647619 -0.0194647202,80.8438923 1.01216545,83.4517598 C1.20681265,83.957764 1.55717762,84.3859213 2.0243309,84.6778468 C2.60827251,85.0670807 16.6034063,93.9805383 40.0194647,93.9805383 C63.4355231,93.9805383 77.4306569,85.047619 78.0145985,84.6778468 C78.4622871,84.3859213 78.8321168,83.957764 79.026764,83.4517598 C80,80.863354 79.9805353,75.6670807 79.9610706,74.6550725 Z" id="Shape"></path>
                    </g>
                </g>
            </g>
        </g>
    </g>
</svg>