<?xml version="1.0" encoding="UTF-8"?>
<svg width="290px" height="31px" viewBox="0 0 290 31" version="1.1" xmlns="http://www.w3.org/2000/svg" xmlns:xlink="http://www.w3.org/1999/xlink">
    <!-- Generator: Sketch 41.2 (35397) - http://www.bohemiancoding.com/sketch -->
    <title>btc-mag-logo</title>
    <desc>Created with Sketch.</desc>
    <defs></defs>
    <g id="Page-1" stroke="none" stroke-width="1" fill="none" fill-rule="evenodd">
        <g id="home-outside-copy" transform="translate(-197.000000, -3254.000000)">
            <g id="btc-mag-logo" transform="translate(197.000000, 3254.000000)">
                <g id="left-logo/dark-orange/-btc-mag-logo">
                    <g id="LOGOS">
                        <g id="left-logo/dark-orange/-btc-mag-logo">
                            <g id="FINAL-left">
                                <g id="Group">
                                    <g transform="translate(0.004646, 0.072878)">
                                        <g id="Shape">
                                            <path d="M27.0319589,8.07670522 C27.0319589,7.67879128 26.7862138,7.52957356 26.4913196,7.67879128 L22.2166155,9.8175786 C21.9217214,9.96679634 21.6759763,10.4131741 21.6759763,10.7613488 L21.6759763,30.3535081 C21.6759763,30.751422 21.9217214,30.9006396 22.2166155,30.751422 L26.4913196,28.6139101 C26.7862138,28.4646923 27.0319589,28.0170392 27.0319589,27.6688644 L27.0319589,8.07670522 L27.0319589,8.07670522 L27.0319589,8.07670522 Z" fill="#FFA208"></path>
                                            <path d="M34.4509399,4.29779832 C34.4509399,3.89988438 34.2051948,3.75066667 33.9103007,3.89988438 L29.6355963,6.03739635 C29.3407025,6.18661409 29.0949574,6.63426723 29.0949574,6.98244191 L29.0949574,26.6243403 C29.0949574,27.0222543 29.3407025,27.1714721 29.6355963,27.0222543 L33.9103007,24.883467 C34.2051948,24.7342492 34.4509399,24.2865961 34.4509399,23.9396968 L34.4509399,4.29779832 L34.4509399,4.29779832 Z" fill="#FFA208"></path>
                                            <path d="M41.5258777,0.717848376 C41.5258777,0.319934453 41.2801326,0.170716733 40.9852385,0.319934453 L36.7105344,2.45744642 C36.4156403,2.60666414 36.1711553,3.0543173 36.1711553,3.40249198 L36.1711553,22.9946512 C36.1711553,23.3925651 36.4156403,23.5417828 36.7105344,23.3925651 L40.9852385,21.2537778 C41.2801326,21.1045601 41.5258777,20.6569069 41.5258777,20.3087322 L41.5258777,0.717848376 L41.5258777,0.717848376 Z" fill="#FFA208"></path>
                                            <path d="M19.8083137,26.126948 C19.8083137,25.6295556 19.5134196,25.0824239 19.1202275,24.883467 L0.69438738,15.634519 C0.301195251,15.435562 0.0063011559,15.634519 0.0063011559,16.1319114 L0.0063011559,20.2092537 C0.0063011559,20.7066461 0.301195251,21.2537778 0.69438738,21.4527347 L19.1202275,30.751422 C19.5134196,30.950379 19.8083137,30.7016826 19.8083137,30.2042903 L19.8083137,26.126948 L19.8083137,26.126948 Z" fill="#35393E"></path>
                                            <path d="M19.8083137,18.5691342 C19.8083137,18.0717418 19.5134196,17.5246101 19.1202275,17.3256532 L0.69438738,8.07670522 C0.301195251,7.87774825 0.0063011559,8.07670522 0.0063011559,8.57409761 L0.0063011559,12.6514399 C0.0063011559,13.1488323 0.301195251,13.695964 0.69438738,13.894921 L19.1202275,23.1438689 C19.5134196,23.3428259 19.8083137,23.0941297 19.8083137,22.5967373 L19.8083137,18.5691342 L19.8083137,18.5691342 Z" fill="#35393E"></path>
                                            <path d="M19.8083137,10.9603058 C19.8083137,10.4629134 19.5134196,9.91705709 19.1202275,9.71810015 L0.69438738,0.469152175 C0.301195251,0.270195214 0.0063011559,0.518891415 0.0063011559,0.966544577 L0.0063011559,5.04388691 C0.0063011559,5.54127931 0.301195251,6.0871356 0.69438738,6.28609254 L19.1202275,15.5847798 C19.5134196,15.7837367 19.8083137,15.5350405 19.8083137,15.0376481 L19.8083137,10.9603058 L19.8083137,10.9603058 Z" fill="#35393E"></path>
                                        </g>
                                        <g transform="translate(53.854326, 6.044320)" fill="#35393E">
                                            <path d="M0.0419806666,0.493019723 L7.43071607,0.493019723 C8.1024193,0.493019723 8.76530089,0.573367725 9.41936087,0.734063731 C10.0734209,0.896035105 10.6556477,1.15876032 11.1673015,1.52351475 C11.6789554,1.88826918 12.0948317,2.36015428 12.4136702,2.93661933 C12.7325086,3.51435974 12.8912978,4.21070908 12.8912978,5.0256674 C12.8912978,6.04340878 12.6064855,6.88387442 12.0356008,7.54578892 C11.4659763,8.20770342 10.2737976,8.68341462 9.35130838,8.97164713 L9.79617001,9.02266174 C10.9202962,9.17570557 11.8427854,9.6169819 12.5648979,10.3464907 C13.2857501,11.077275 13.6461763,12.0529293 13.6461763,13.2760045 C13.6461763,14.2605864 13.4533609,15.087023 13.0677301,15.757865 C12.6820994,16.4287071 12.1742262,16.9681865 11.5453709,17.375028 C10.9165155,17.7831449 10.1944031,18.0752035 9.38155393,18.2537546 C8.56744459,18.4323057 7.74199318,18.5215813 6.9026792,18.5215813 L0.0419806666,18.5215813 L0.0419806666,0.493019723 L0.0419806666,0.493019723 Z M3.2114621,7.82636926 L6.47546085,7.82636926 C7.53153458,7.82636926 8.33682229,7.61338326 8.89132401,7.18996204 C9.44456551,6.76526546 9.72055613,6.16201774 9.72055613,5.38149428 C9.72055613,4.56653596 9.43574387,3.99007091 8.8661194,3.64954842 C8.29523466,3.3103013 7.40677168,3.14067775 6.19820998,3.14067775 L3.2114621,3.14067775 L3.2114621,7.82636926 L3.2114621,7.82636926 Z M3.2114621,15.8216333 L6.50066546,15.8216333 C6.9026792,15.8216333 7.33871919,15.7922999 7.80878542,15.7323577 C8.27885166,15.6736909 8.70985073,15.5499805 9.10430309,15.3637772 C9.49875544,15.1762985 9.82641556,14.9046457 10.0860232,14.5488189 C10.3456308,14.1917166 10.4754346,13.7172808 10.4754346,13.1229607 C10.4754346,12.1715383 10.1565961,11.5096238 9.52017938,11.1359418 C8.8825024,10.7635352 7.91716532,10.5760565 6.62668858,10.5760565 L3.2114621,10.5760565 L3.2114621,15.8216333 L3.2114621,15.8216333 Z" id="Shape"></path>
                                            <rect id="Rectangle-path" x="16.7123187" y="0.493019723" width="3.17074165" height="18.0285615"></rect>
                                            <polygon id="Shape" points="27.4066404 3.29372155 21.9460588 3.29372155 21.9460588 0.493019723 36.0367035 0.493019723 36.0367035 3.29372155 30.5773821 3.29372155 30.5773821 18.5215813 27.4066404 18.5215813"></polygon>
                                            <path d="M50.2029623,4.71957978 C49.7341563,4.07424503 49.1216839,3.60363528 48.3668055,3.30647521 C47.6119269,3.00931512 46.8734315,2.86009741 46.1525793,2.86009741 C45.23009,2.86009741 44.390776,3.02972098 43.6358977,3.37024347 C42.8810193,3.7094906 42.2307399,4.17627424 41.68632,4.77059437 C41.14064,5.36491453 40.720983,6.05998854 40.427349,6.85836711 C40.1349754,7.65674568 39.9875283,8.5227186 39.9875283,9.45628588 C39.9875283,10.4408678 40.1299346,11.3400002 40.4160069,12.1549585 C40.7008193,12.9699168 41.1078739,13.6700923 41.6359109,14.2554849 C42.1639476,14.8408775 42.797844,15.2961828 43.5350791,15.6175749 C44.2735745,15.9402422 45.104067,16.1022136 46.0265563,16.1022136 C46.9830716,16.1022136 47.829947,15.9109088 48.5684425,15.5295747 C49.3056778,15.1469651 49.901767,14.6419205 50.3541901,14.0144409 L52.8960762,15.8216333 C52.1071716,16.8227949 51.1430947,17.5994923 50.0025856,18.1517254 C48.860816,18.7039585 47.5274915,18.9794373 46.0013516,18.9794373 C44.6087961,18.9794373 43.3296614,18.7460455 42.1639476,18.2792619 C40.9982337,17.8124782 39.9963499,17.1582159 39.1570361,16.3177503 C38.3189822,15.4785601 37.6649224,14.476123 37.194856,13.3129901 C36.7247898,12.1511324 36.4903868,10.864289 36.4903868,9.45628588 C36.4903868,8.01257256 36.737392,6.71042476 37.2326629,5.54729175 C37.7266737,4.38415874 38.4071986,3.39575078 39.2704569,2.58079245 C40.1349754,1.76583413 41.1532422,1.13707912 42.3277776,0.695802779 C43.5023132,0.254526442 44.7764068,0.0338882735 46.1525793,0.0338882735 C46.7222037,0.0338882735 47.3182932,0.0887289744 47.938327,0.199685741 C48.5596209,0.309367144 49.15445,0.480266071 49.7253348,0.708556431 C50.2962195,0.938122154 50.8318177,1.22252858 51.3359101,1.56177571 C51.8387424,1.90102283 52.2672209,2.30913967 52.6188254,2.78357551 L50.2029623,4.71957978 L50.2029623,4.71957978 Z" id="Shape"></path>
                                            <path d="M53.701364,9.45628588 C53.701364,8.01257256 53.9395477,6.71042476 54.4184357,5.54729175 C54.8960633,4.38415874 55.5589449,3.39575078 56.4058203,2.58079245 C57.2526954,1.76583413 58.2596201,1.13707912 59.425334,0.695802779 C60.5910478,0.254526442 61.861361,0.0338882735 63.2375335,0.0338882735 C64.6300888,0.0338882735 65.9130041,0.254526442 67.0875398,0.695802779 C68.260815,1.13707912 69.2765612,1.76583413 70.1322582,2.58079245 C70.986695,3.39575078 71.6533573,4.38415874 72.132245,5.54729175 C72.6098728,6.71042476 72.8493167,8.01257256 72.8493167,9.45628588 C72.8493167,10.864289 72.6098728,12.1511324 72.132245,13.3129901 C71.6533573,14.476123 70.986695,15.4785601 70.1322582,16.3177503 C69.2765612,17.1582159 68.260815,17.8124782 67.0875398,18.2792619 C65.9130041,18.7460455 64.6300888,18.9794373 63.2375335,18.9794373 C61.861361,18.9794373 60.5910478,18.7460455 59.425334,18.2792619 C58.2596201,17.8124782 57.2526954,17.1582159 56.4058203,16.3177503 C55.5589449,15.4785601 54.8960633,14.476123 54.4184357,13.3129901 C53.9395477,12.1511324 53.701364,10.864289 53.701364,9.45628588 L53.701364,9.45628588 Z M57.1480964,9.45628588 C57.1480964,10.4230127 57.2942831,11.3106668 57.587917,12.1166976 C57.881551,12.9227283 58.3012078,13.6229038 58.8468881,14.2172239 C59.3913078,14.8115441 60.0378064,15.2745016 60.7838632,15.6048212 C61.5299201,15.9364162 62.3566319,16.1022136 63.262738,16.1022136 C64.1688444,16.1022136 64.9980765,15.9364162 65.7529548,15.6048212 C66.5078335,15.2745016 67.1581125,14.8115441 67.7037926,14.2172239 C68.2482125,13.6229038 68.6678695,12.9227283 68.9615035,12.1166976 C69.2551372,11.3106668 69.4013241,10.4230127 69.4013241,9.45628588 C69.4013241,8.5227186 69.2551372,7.65674568 68.9615035,6.85836711 C68.6678695,6.05998854 68.2532536,5.36491453 67.7163951,4.77059437 C67.1795366,4.17627424 66.5330379,3.7094906 65.7781595,3.37024347 C65.0232809,3.02972098 64.1852273,2.86009741 63.262738,2.86009741 C62.3402487,2.86009741 61.5047156,3.02972098 60.7586588,3.37024347 C60.012602,3.7094906 59.3711441,4.17627424 58.8342856,4.77059437 C58.2974271,5.36491453 57.881551,6.05998854 57.587917,6.85836711 C57.2942831,7.65674568 57.1480964,8.5227186 57.1480964,9.45628588 L57.1480964,9.45628588 Z" id="Shape"></path>
                                            <rect id="Rectangle-path" x="75.9192398" y="0.493019723" width="3.17074165" height="18.0285615"></rect>
                                            <polygon id="Shape" points="83.0143412 0.493019723 87.2172124 0.493019723 95.4944108 13.9889336 95.54482 13.9889336 95.54482 0.493019723 98.7155615 0.493019723 98.7155615 18.5215813 94.6891231 18.5215813 86.2354921 4.59204327 86.185083 4.59204327 86.185083 18.5215813 83.0143412 18.5215813"></polygon>
                                        </g>
                                        <g transform="translate(158.515014, 6.044320)" fill="#FFA208">
                                            <polygon id="Shape" points="9.43977617 14.3447604 9.49018541 14.3447604 14.7491301 0.493019723 18.6230808 0.493019723 18.6230808 18.5215813 16.132864 18.5215813 16.132864 3.44676537 16.0824547 3.44676537 10.16945 18.5215813 8.58407921 18.5215813 2.69627914 3.44676537 2.64586988 3.44676537 2.64586988 18.5215813 0.230006709 18.5215813 0.230006709 0.493019723 4.10521759 0.493019723"></polygon>
                                            <path d="M23.6816487,18.5215813 L20.9129208,18.5215813 L28.6381379,0.493019723 L30.9027735,0.493019723 L38.5523765,18.5215813 L35.7332396,18.5215813 L33.9222872,14.0896874 L25.4673963,14.0896874 L23.6816487,18.5215813 L23.6816487,18.5215813 Z M26.3482979,11.8743782 L33.0161811,11.8743782 L29.6942116,3.42125806 L26.3482979,11.8743782 L26.3482979,11.8743782 Z" id="Shape"></path>
                                            <path d="M53.8251182,4.21070908 C53.28826,3.61638895 52.6052145,3.14067775 51.7747223,2.78357551 C50.9442298,2.42774863 50.0166996,2.24919751 48.993392,2.24919751 C47.9537012,2.24919751 47.014829,2.44050228 46.175515,2.82183646 C45.3374613,3.20444601 44.6241706,3.72607035 44.0369026,4.38798485 C43.449635,5.04989935 42.9972121,5.81894453 42.6783737,6.69256964 C42.359535,7.56747012 42.2007458,8.49721132 42.2007458,9.48179319 C42.2007458,10.4829548 42.359535,11.4254497 42.6783737,12.3080023 C42.9972121,13.190555 43.449635,13.9583248 44.0369026,14.6125871 C44.6241706,15.2655741 45.3450227,15.7795462 46.2007197,16.1532282 C47.0564166,16.5269102 48.0129322,16.7131135 49.0690059,16.7131135 C49.9083199,16.7131135 50.6795812,16.6365916 51.3840504,16.4835478 C52.0885199,16.330504 52.700992,16.1098658 53.2214676,15.8216333 L53.2214676,10.8056222 L49.2706428,10.8056222 L49.2706428,8.66683487 L55.6864797,8.66683487 L55.6864797,17.4005353 C54.7476075,17.909406 53.7242999,18.3009431 52.6178167,18.5713205 C51.5100737,18.8429733 50.3027722,18.9794373 48.993392,18.9794373 C47.6020967,18.9794373 46.322962,18.7460455 45.1572482,18.2792619 C43.9915343,17.8124782 42.9883903,17.1582159 42.1503367,16.3177503 C41.3110226,15.4785601 40.6569629,14.476123 40.1868964,13.3129901 C39.7180904,12.1511324 39.4824272,10.8732166 39.4824272,9.48179319 C39.4824272,8.07251471 39.7218711,6.78694666 40.1994989,5.62381365 C40.6783866,4.46068067 41.340008,3.46717121 42.1881436,2.6445607 C43.035019,1.82067483 44.0369026,1.18044153 45.1950551,0.721310082 C46.3519474,0.263453998 47.6096581,0.0338882735 48.9681873,0.0338882735 C50.394769,0.0338882735 51.6650822,0.246874251 52.7803866,0.670295476 C53.8969514,1.09499207 54.8232214,1.66380492 55.5617169,2.37673403 L53.8251182,4.21070908 L53.8251182,4.21070908 Z" id="Shape"></path>
                                            <path d="M60.6946384,18.5215813 L57.9259107,18.5215813 L65.6511278,0.493019723 L67.9157632,0.493019723 L75.5653664,18.5215813 L72.7462292,18.5215813 L70.9352771,14.0896874 L62.4803861,14.0896874 L60.6946384,18.5215813 L60.6946384,18.5215813 Z M63.3612877,11.8743782 L70.0291708,11.8743782 L66.7084617,3.42125806 L63.3612877,11.8743782 L63.3612877,11.8743782 Z" id="Shape"></path>
                                            <polygon id="Shape" points="89.6056019 2.70832897 79.5401356 16.2807647 89.7568297 16.2807647 89.7568297 18.5215813 76.5206216 18.5215813 76.5206216 16.306272 86.5608835 2.70832897 76.7222588 2.70832897 76.7222588 0.493019723 89.6056019 0.493019723"></polygon>
                                            <rect id="Rectangle-path" x="92.751139" y="0.493019723" width="2.49147704" height="18.0285615"></rect>
                                            <polygon id="Shape" points="112.124673 14.9046457 112.175082 14.9046457 112.175082 0.493019723 114.666559 0.493019723 114.666559 18.5215813 111.521022 18.5215813 102.110876 3.80259225 102.060467 3.80259225 102.060467 18.5215813 99.5689896 18.5215813 99.5689896 0.493019723 102.815345 0.493019723"></polygon>
                                            <polygon id="Shape" points="121.48567 16.2807647 130.794998 16.2807647 130.794998 18.5215813 118.994193 18.5215813 118.994193 0.493019723 130.418189 0.493019723 130.418189 2.70832897 121.48567 2.70832897 121.48567 8.10567421 129.890152 8.10567421 129.890152 10.2712442 121.48567 10.2712442"></polygon>
                                        </g>
                                    </g>
                                </g>
                            </g>
                        </g>
                    </g>
                </g>
            </g>
        </g>
    </g>
</svg>