<?xml version="1.0" encoding="UTF-8"?>
<svg width="12px" height="10px" viewBox="0 0 12 10" version="1.1" xmlns="http://www.w3.org/2000/svg" xmlns:xlink="http://www.w3.org/1999/xlink">
    <!-- Generator: Sketch 41.2 (35397) - http://www.bohemiancoding.com/sketch -->
    <title>calendar copy</title>
    <desc>Created with Sketch.</desc>
    <defs></defs>
    <g id="MASTER" stroke="none" stroke-width="1" fill="none" fill-rule="evenodd">
        <g id="results" transform="translate(-671.000000, -78.000000)" fill="#E6E4E1">
            <g id="calendar-copy" transform="translate(671.000000, 78.000000)">
                <path d="M7.96286366,5.44991421 L3.26588648,5.44991421 C3.04966055,5.44991421 2.87468002,5.26764283 2.87468002,5.04240748 L2.87468002,5.04240748 C2.87468002,4.81717214 3.04966055,4.63490076 3.26588648,4.63490076 L7.96411352,4.63490076 C8.18033945,4.63490076 8.35531998,4.81717214 8.35531998,5.04240748 L8.35531998,5.04240748 C8.35407012,5.26764283 8.17908959,5.44991421 7.96286366,5.44991421 L7.96286366,5.44991421 Z M7.96286366,3.24312859 L3.26588648,3.24312859 C3.04966055,3.24312859 2.87468002,3.06085722 2.87468002,2.83562187 L2.87468002,2.83562187 C2.87468002,2.61038652 3.04966055,2.42811515 3.26588648,2.42811515 L7.96411352,2.42811515 C8.18033945,2.42811515 8.35531998,2.61038652 8.35531998,2.83562187 L8.35531998,2.83562187 C8.35407012,3.06085722 8.17908959,3.24312859 7.96286366,3.24312859 L7.96286366,3.24312859 Z M10.3288503,9.26980152 L8.88401113,9.26980152 L8.88401113,9.59138031 C8.88401113,9.81661566 8.70903061,9.99888703 8.49280467,9.99888703 L8.49280467,9.99888703 C8.27657874,9.99888703 8.10159822,9.81661566 8.10159822,9.59138031 L8.10159822,9.26980152 L3.12715192,9.26980152 L3.12715192,9.59138031 C3.12715192,9.81661566 2.9521714,9.99888703 2.73594546,9.99888703 L2.73594546,9.99888703 C2.51971953,9.99888703 2.34473901,9.81661566 2.34473901,9.59138031 L2.34473901,9.26980152 L0.899899833,9.26980152 C0.402455203,9.26980152 0,8.85057735 0,8.33240586 L0,0.937395659 C0,0.41922417 0.402455203,-4.08562073e-14 0.899899833,-4.08562073e-14 L10.3301002,-4.08562073e-14 C10.8275448,-4.08562073e-14 11.23,0.41922417 11.23,0.937395659 L11.23,8.33240586 C11.2287501,8.84927541 10.8262949,9.26980152 10.3288503,9.26980152 L10.3288503,9.26980152 Z M0.899899833,8.33240586 L2.34598887,8.33240586 L2.34598887,8.12149184 C2.34598887,7.89625649 2.52096939,7.71398511 2.73719533,7.71398511 L2.73719533,7.71398511 C2.95342126,7.71398511 3.12840178,7.89625649 3.12840178,8.12149184 L3.12840178,8.33240586 L8.10284808,8.33240586 L8.10284808,8.12149184 C8.10284808,7.89625649 8.2778286,7.71398511 8.49405454,7.71398511 L8.49405454,7.71398511 C8.71028047,7.71398511 8.88526099,7.89625649 8.88526099,8.12149184 L8.88526099,8.33240586 L10.33135,8.33240586 L10.33135,8.33240586 L10.33135,7.05520428 L0.899899833,7.05520428 L0.899899833,8.33240586 L0.899899833,8.33240586 L0.899899833,8.33240586 Z M10.3288503,0.937395659 L0.899899833,0.937395659 L0.899899833,0.937395659 L0.899899833,6.24409664 L10.3301002,6.24409664 L10.3301002,0.937395659 L10.3288503,0.937395659 L10.3288503,0.937395659 Z" id="Shape" transform="translate(5.615000, 4.999444) scale(1, -1) translate(-5.615000, -4.999444) "></path>
            </g>
        </g>
    </g>
</svg>