<?xml version="1.0" encoding="UTF-8"?>
<svg width="14px" height="25px" viewBox="0 0 14 25" version="1.1" xmlns="http://www.w3.org/2000/svg" xmlns:xlink="http://www.w3.org/1999/xlink">
    <!-- Generator: Sketch 50.2 (55047) - http://www.bohemiancoding.com/sketch -->
    <title>facebook-logo</title>
    <desc>Created with Sketch.</desc>
    <defs></defs>
    <g id="Main" stroke="none" stroke-width="1" fill="none" fill-rule="evenodd">
        <g id="signup-(error)" transform="translate(-548.000000, -681.000000)" fill="#FFFFFF" fill-rule="nonzero">
            <g id="Facebook-Button" transform="translate(535.000000, 673.000000)">
                <g id="facebook-logo" transform="translate(13.000000, 8.000000)">
                    <path d="M13.4728011,0.0052016687 L10.1148377,0 C6.34228098,0 3.9042891,2.41487469 3.9042891,6.15253373 L3.9042891,8.98926376 L0.528007081,8.98926376 C0.23625623,8.98926376 0,9.21761701 0,9.49928737 L0,13.6093859 C0,13.8910563 0.236525621,14.1191494 0.528007081,14.1191494 L3.9042891,14.1191494 L3.9042891,24.4902365 C3.9042891,24.7719068 4.14054533,25 4.43229618,25 L8.83738382,25 C9.12913468,25 9.36539091,24.7716467 9.36539091,24.4902365 L9.36539091,14.1191494 L13.313052,14.1191494 C13.6048029,14.1191494 13.8410591,13.8910563 13.8410591,13.6093859 L13.8426754,9.49928737 C13.8426754,9.36404399 13.7869114,9.23452243 13.6880448,9.13881173 C13.5891782,9.04310103 13.4544825,8.98926376 13.314399,8.98926376 L9.36539091,8.98926376 L9.36539091,6.58453232 C9.36539091,5.42872153 9.65067636,4.84197331 11.210183,4.84197331 L13.4722623,4.84119305 C13.7637438,4.84119305 14,4.6128398 14,4.33142952 L14,0.514965201 C14,0.233815008 13.7640132,0.00572183556 13.4728011,0.0052016687 Z" id="Shape"></path>
                </g>
            </g>
        </g>
    </g>
</svg>