<?xml version="1.0" encoding="UTF-8"?>
<svg width="28px" height="27px" viewBox="0 0 28 27" version="1.1" xmlns="http://www.w3.org/2000/svg" xmlns:xlink="http://www.w3.org/1999/xlink">
    <!-- Generator: Sketch 41.2 (35397) - http://www.bohemiancoding.com/sketch -->
    <title>github-logo</title>
    <desc>Created with Sketch.</desc>
    <defs></defs>
    <g id="Symbols" stroke="none" stroke-width="1" fill="none" fill-rule="evenodd" opacity="0.5">
        <g id="Footer" transform="translate(-1050.000000, -280.000000)" fill="#FFFFFF">
            <g id="github-logo">
                <g transform="translate(1050.000000, 280.000000)">
                    <g id="Capa_1">
                        <path d="M25.6413298,6.82651029 C24.4124472,4.73344503 22.7455464,3.07636235 20.6401888,1.85488844 C18.5345177,0.633352227 16.2357527,0.0227398744 13.7422642,0.0227398744 C11.249089,0.0227398744 8.94957191,0.63353913 6.84433959,1.85488844 C4.73879391,3.07630005 3.0719558,4.73344503 1.84307321,6.82651029 C0.614378626,8.91951324 0,11.2050887 0,13.6831743 C0,16.6599173 0.873654805,19.3366808 2.62140312,21.7141503 C4.36896342,24.0918066 6.62655262,25.7370521 9.39398269,26.6500736 C9.7161194,26.7095088 9.9545883,26.6677048 10.1096401,26.5257208 C10.2647546,26.3835499 10.3422178,26.2054935 10.3422178,25.9922994 C10.3422178,25.9567255 10.3391468,25.6366852 10.3331929,25.0318045 C10.327051,24.4269238 10.3241681,23.8992342 10.3241681,23.4489846 L9.91259772,23.5197586 C9.65018791,23.5675435 9.31915171,23.5877913 8.91948911,23.5820596 C8.52001452,23.5765148 8.10531051,23.5348978 7.67594114,23.4575199 C7.24638375,23.3808273 6.84684649,23.2029579 6.477016,22.9242854 C6.10737353,22.6456129 5.84496373,22.2808404 5.68984926,21.8305286 L5.51091925,21.4212109 C5.39165346,21.1487062 5.20388661,20.8459855 4.94736803,20.5141702 C4.69084944,20.1820435 4.43144791,19.9568876 4.16903811,19.8383287 L4.04375576,19.7491759 C3.96027598,19.6899277 3.88281275,19.6184684 3.81117807,19.5355457 C3.73960606,19.4526231 3.68602107,19.3696381 3.65023506,19.2865285 C3.61438639,19.2033567 3.64409316,19.135137 3.73966874,19.0816204 C3.83524432,19.0281039 4.00796976,19.0021243 4.25859713,19.0021243 L4.61633182,19.0552671 C4.85492607,19.1028028 5.15005093,19.2447868 5.50208242,19.4820914 C5.8539259,19.7192091 6.14315954,20.0274746 6.36984601,20.4067633 C6.64435161,20.8930851 6.97507445,21.2636516 7.36295462,21.5186497 C7.75052143,21.7736478 8.14128454,21.9009288 8.53486791,21.9009288 C8.92845128,21.9009288 9.26838698,21.8712735 9.55480035,21.8122744 C9.84090036,21.7529638 10.1093267,21.6638111 10.3599541,21.5453145 C10.4673121,20.750478 10.7596167,20.1398657 11.2366172,19.7130413 C10.5567458,19.6420182 9.94550079,19.5350473 9.40256882,19.3928141 C8.85995022,19.2503939 8.29921926,19.0192571 7.72075199,18.6987806 C7.14197135,18.3787403 6.66183724,17.981322 6.28022432,17.5072112 C5.89854873,17.0328512 5.58531152,16.4100902 5.3409514,15.6394888 C5.09646593,14.8685759 4.97419186,13.979291 4.97419186,12.9713851 C4.97419186,11.5362809 5.44548914,10.3150562 6.38789569,9.30702562 C5.94643053,8.22809646 5.98810775,7.01858435 6.5130527,5.67861389 C6.85900496,5.57176763 7.37204214,5.65194905 8.05191354,5.91865974 C8.73191028,6.18549503 9.22978071,6.4140775 9.5460262,6.60359722 C9.86227169,6.79305464 10.1156567,6.95360438 10.3065571,7.08381352 C11.4161739,6.77561035 12.5612634,6.62147761 13.7421388,6.62147761 C14.9230143,6.62147761 16.0683544,6.77561035 17.1780339,7.08381352 L17.857968,6.6571138 C18.3229353,6.37239811 18.8720092,6.11148142 19.5038735,5.87430141 C20.1361138,5.63724601 20.6195695,5.57195453 20.9537393,5.67880079 C21.4903414,7.01883355 21.5381605,8.22828336 21.09657,9.30721253 C22.0389139,10.3152431 22.5103992,11.5367793 22.5103992,12.971572 C22.5103992,13.9794779 22.3876864,14.8715663 22.143577,15.6483978 C21.8991542,16.4253539 21.583222,17.047492 21.1956552,17.5161203 C20.8076497,17.9846863 20.3244447,18.3789895 19.7459774,18.6989675 C19.1673848,19.0191948 18.6064658,19.2503316 18.0638472,19.3927518 C17.5209779,19.5351719 16.9097329,19.6422051 16.2298615,19.7133528 C16.8499433,20.2467742 17.1600469,21.0887726 17.1600469,22.2389741 L17.1600469,25.991801 C17.1600469,26.2049951 17.2346272,26.3829892 17.3839131,26.5252224 C17.533011,26.6672064 17.7684716,26.7090104 18.0906083,26.6495129 C20.8584145,25.736616 23.1160036,24.0913082 24.8635013,21.7136519 C26.6108109,19.3361824 27.4847791,16.6594189 27.4847791,13.6826759 C27.4841523,11.2049018 26.8694603,8.91951324 25.6413298,6.82651029 Z" id="Shape"></path>
                    </g>
                </g>
            </g>
        </g>
    </g>
</svg>