<?xml version="1.0" encoding="UTF-8"?>
<svg width="17px" height="17px" viewBox="0 0 17 17" version="1.1" xmlns="http://www.w3.org/2000/svg" xmlns:xlink="http://www.w3.org/1999/xlink">
    <!-- Generator: Sketch 41.2 (35397) - http://www.bohemiancoding.com/sketch -->
    <title>Shape</title>
    <desc>Created with Sketch.</desc>
    <defs></defs>
    <g id="Symbols" stroke="none" stroke-width="1" fill="none" fill-rule="evenodd">
        <g id="navbar-(inside)" transform="translate(-172.000000, -20.000000)" fill="#808080">
            <g transform="translate(-1.000000, 0.000000)" id="Shape">
                <path d="M185.110841,30.6575401 L184.335747,30.6575401 L184.045125,30.3668799 C185.013992,29.3011259 185.595313,27.847825 185.595313,26.2976373 C185.595275,22.8097151 182.78556,20 179.297637,20 C175.809715,20 173,22.8097151 173,26.2976373 C173,29.7855595 175.809715,32.5952746 179.297637,32.5952746 C180.847825,32.5952746 182.301126,32.0139543 183.36688,31.045087 L183.65754,31.3357092 L183.65754,32.110803 L188.501876,36.9551774 L189.955177,35.5018765 L185.110841,30.6575401 Z M179.297637,30.6575401 C176.875469,30.6575401 174.937735,28.7198055 174.937735,26.2976373 C174.937735,23.8754691 176.875469,21.9377346 179.297637,21.9377346 C181.719806,21.9377346 183.65754,23.8754691 183.65754,26.2976373 C183.65754,28.7198055 181.719806,30.6575401 179.297637,30.6575401 Z"></path>
            </g>
        </g>
    </g>
</svg>