<?xml version="1.0" encoding="UTF-8"?>
<svg width="87px" height="42px" viewBox="0 0 87 42" version="1.1" xmlns="http://www.w3.org/2000/svg" xmlns:xlink="http://www.w3.org/1999/xlink">
    <!-- Generator: Sketch 41.2 (35397) - http://www.bohemiancoding.com/sketch -->
    <title>Group 2poet-inverted</title>
    <desc>Created with Sketch.</desc>
    <defs></defs>
    <g id="UI-Kit" stroke="none" stroke-width="1" fill="none" fill-rule="evenodd">
        <g id="Desktop-HD-Copy-7" transform="translate(-199.000000, -1969.000000)">
            <g id="poet-logo" transform="translate(148.000000, 1969.000000)">
                <g id="Letters">
                    <g id="Group-2" transform="translate(51.000000, 0.000000)">
                        <path d="M49.1433471,26.397 C47.6723362,26.397 46.4745131,27.594 46.4745131,29.064 C46.4745131,30.534 47.6723362,31.731 49.1433471,31.731 C50.614358,31.731 51.8121812,30.534 51.8121812,29.064 C51.8121812,27.594 50.614358,26.397 49.1433471,26.397 Z" id="Shape" fill="#FFFFFF"></path>
                        <path d="M42.6919136,14.301 C40.8216284,12.369 38.2998954,11.319 35.5890325,11.319 C32.8781696,11.319 30.4404944,12.39 28.5702091,14.301 C26.7209383,16.212 25.6912306,18.774 25.6912306,21.504 C25.6912306,24.234 26.7209383,26.796 28.5702091,28.707 C30.4404944,30.639 32.8781696,31.689 35.5890325,31.689 C38.2998954,31.689 40.8216284,30.618 42.6919136,28.707 C44.5411845,26.796 45.4658199,24.276 45.4658199,21.546 C45.4658199,18.816 44.5621989,16.212 42.6919136,14.301 Z M35.5890325,28.014 C32.1006352,28.014 29.4738301,25.2 29.4738301,21.588 C29.4738301,17.976 32.1006352,15.162 35.5890325,15.162 C39.0774297,15.162 41.6832205,18.018 41.6832205,21.63 C41.7042349,25.221 39.0774297,28.014 35.5890325,28.014 Z" id="Shape" fill="#FFFFFF"></path>
                        <g id="Group" transform="translate(0.234369, 11.340000)">
                            <path d="M12.8398236,3.948 C9.35142638,3.948 6.82969342,6.783 6.82969342,10.395 C6.82969342,14.007 9.35142638,16.842 12.8398236,16.842 C16.3282209,16.842 19.0600983,14.007 19.0600983,10.395 C19.0600983,6.783 16.3282209,3.948 12.8398236,3.948 Z" id="Shape"></path>
                            <path d="M19.9427048,3.108 C18.0724195,1.176 15.5506866,0.126 12.8398236,0.126 C10.2970762,0.126 8.15360322,1.05 6.32534683,2.751 L6.32534683,0.294 L6.32534683,0.084 L0.189129972,0.084 L0.189129972,3.465 L2.5427474,4.473 L2.5427474,27.048 L0.357245502,27.762 L0.357245502,30.534 L2.98405066,30.534 L2.98405066,30.534 L5.86302912,30.534 L5.86302912,30.534 L8.48983428,30.534 L8.48983428,27.762 L6.28331795,27.048 L6.28331795,18.69 L6.28331795,17.892 C8.11157434,19.593 10.2760618,20.517 12.8188092,20.517 C15.5296721,20.517 18.0514051,19.446 19.9216904,17.535 C21.7709612,15.624 22.8006688,13.062 22.8006688,10.332 C22.8006688,7.602 21.8129901,5.019 19.9427048,3.108 Z M12.8398236,16.842 C9.35142638,16.842 6.82969342,14.007 6.82969342,10.395 C6.82969342,6.783 9.35142638,3.948 12.8398236,3.948 C16.3282209,3.948 19.0600983,6.783 19.0600983,10.395 C19.0600983,14.007 16.3282209,16.842 12.8398236,16.842 Z" id="Shape" fill="#FFFFFF"></path>
                        </g>
                        <path d="M86.1489999,28.161 C85.8547978,28.224 85.5185667,28.287 85.0982779,28.35 C84.677989,28.413 84.2997291,28.434 83.963498,28.434 C83.2910359,28.434 82.7446604,28.224 82.3453861,27.825 C81.9461117,27.426 81.7359673,26.754 81.7359673,25.809 L81.7359673,25.494 L81.7359673,13.734 L85.4345089,13.734 L85.4345089,9.933 L81.7359673,9.933 L81.7359673,5.376 L81.7359673,5.376 L81.7359673,0.105 L77.9113389,1.344 L77.9113389,1.344 L77.9113389,9.933 L73.5193207,9.933 L73.5193207,13.734 L77.9113389,13.734 L77.9113389,25.683 L77.9113389,25.746 L77.9113389,25.746 C77.9113389,27.741 78.3736567,29.211 79.2772776,30.156 C80.201913,31.101 81.4207506,31.563 82.9758193,31.563 C83.6692959,31.563 84.3627724,31.479 85.0772634,31.332 C85.77074,31.185 86.296101,30.996 86.674361,30.765 L86.1489999,28.161 Z" id="Shape" fill="#FFFFFF"></path>
                        <path d="M68.7708353,24.003 C67.7411277,26.271 65.4505536,27.783 62.9288206,27.783 C61.3947664,27.783 59.9447699,27.237 58.7889757,26.271 L68.8759075,20.433 L68.8759075,20.454 L72.3643048,18.438 L72.3012614,18.27 C70.8932939,14.112 66.9635933,11.298 62.5715751,11.298 C59.8396977,11.298 57.3179648,12.327 55.4686939,14.217 C53.6404376,16.086 52.6317444,18.627 52.6317444,21.378 C52.6317444,27.048 57.233907,31.647 62.9078062,31.647 C65.2614236,31.647 67.5519977,30.828 69.3802541,29.358 C71.1664816,27.909 72.4273481,25.872 72.9316947,23.646 L68.7708353,24.003 Z M56.4353582,21.315 C56.4353582,19.593 57.0657915,18.018 58.2215858,16.842 C59.37738,15.666 60.9534631,15.015 62.6556329,15.015 C64.4628748,15.015 66.2491023,15.876 67.5099688,17.304 L56.8766615,23.457 C56.5824593,22.68 56.4353582,21.945 56.4353582,21.315 Z" id="Shape" fill="#FFFFFF"></path>
                    </g>
                </g>
            </g>
        </g>
    </g>
</svg>