<?xml version="1.0" encoding="UTF-8"?>
<svg width="99px" height="31px" viewBox="0 0 99 31" version="1.1" xmlns="http://www.w3.org/2000/svg" xmlns:xlink="http://www.w3.org/1999/xlink">
    <!-- Generator: Sketch 41.2 (35397) - http://www.bohemiancoding.com/sketch -->
    <title>logo</title>
    <desc>Created with Sketch.</desc>
    <defs></defs>
    <g id="Symbols" stroke="none" stroke-width="1" fill="none" fill-rule="evenodd">
        <g id="navbar-(inside)" transform="translate(-19.000000, -14.000000)">
            <g transform="translate(-1.000000, 0.000000)" id="logo">
                <g transform="translate(20.000000, 14.000000)">
                    <path d="M72.1514603,19.5089676 C71.1173286,19.5089676 70.2760496,20.3682167 70.2760496,21.4244378 C70.2760496,22.4806589 71.1173286,23.3399847 72.1514603,23.3399847 C73.185592,23.3399847 74.0269462,22.4806589 74.0269462,21.4244378 C74.0269462,20.3682167 73.185592,19.5089676 72.1514603,19.5089676" id="Fill-1" fill="#463E38"></path>
                    <path d="M97.5093755,20.5103097 C97.2785835,20.5103097 97.0598118,20.4657282 96.8589206,20.3776394 C96.6580293,20.2897808 96.4840338,20.1665487 96.3415918,20.0111656 C96.1966706,19.8533271 96.0789456,19.667865 95.9917225,19.4597668 C95.9055511,19.2543542 95.8618268,19.0416521 95.8618268,18.8275688 L95.8618268,10.3520947 L98.4599653,10.3520947 L98.4599653,7.61213516 L95.8618268,7.61213516 L95.8618268,0.910866962 L93.1793952,0.910866962 L93.1793952,7.61213516 L90.2527988,7.61213516 L90.2527988,10.3520947 L93.1793952,10.3520947 L93.1793952,18.973437 C93.1793952,20.1485165 93.5920712,21.1659111 94.406079,21.9972296 C95.2200116,22.8286248 96.2161287,23.2501157 97.3710656,23.250039 L98.4363752,23.2184253 L98.4613927,20.5103097 L97.5093755,20.5103097 Z" id="Fill-5" fill="#463F38"></path>
                    <path d="M67.1004427,16.0549596 C67.1004427,18.636697 65.1905484,20.6589786 62.7523567,20.6589786 C60.3141649,20.6589786 58.4042706,18.636697 58.4042706,16.0549596 C58.4042706,13.473299 60.3141649,11.4510173 62.7523567,11.4510173 C65.1905484,11.4510173 67.1004427,13.473299 67.1004427,16.0549596 M67.7377503,10.8337821 C66.4254962,9.45267619 64.6548885,8.69210492 62.7523567,8.69210492 C60.8498249,8.69210492 59.0792172,9.45267619 57.766963,10.8337821 C56.4649263,12.2039921 55.7479083,14.0383562 55.7479083,15.9988683 C55.7479083,17.9593036 56.4649263,19.7936677 57.766963,21.1638777 C59.0792172,22.5449836 60.8498249,23.3055549 62.7523567,23.3055549 C64.6548885,23.3055549 66.4254962,22.5449836 67.7377503,21.1638777 C69.0397871,19.7936677 69.756805,17.9593036 69.756805,15.9988683 C69.756805,14.0383562 69.0397871,12.2039921 67.7377503,10.8337821" id="Fill-3" fill="#463F38"></path>
                    <g id="Group-6">
                        <path d="M25.0465112,7.09802827 L20.5507243,11.6898468 L26.6286988,11.6898468 L27.8039202,10.4894456 C27.8089537,10.4839976 27.8140624,10.4787031 27.8191711,10.4734086 C28.7781751,9.49399657 29.3062472,8.19177149 29.3062472,6.80667546 C29.3062472,5.47513861 28.8170161,4.22110147 27.9273549,3.25588497 L25.1273485,6.1117871 C25.3359779,6.41142701 25.309533,6.82938824 25.0465112,7.09802827" id="Fill-8" fill="#BBBBBB" opacity="0.694519928"></path>
                        <polygon id="Fill-10" fill="#BBBBBB" opacity="0.694519928" points="10.1696275 22.2926876 6.70045949 25.8359583 12.7784341 25.8359583 16.247527 22.2926876"></polygon>
                        <polygon id="Fill-12" fill="#BBBBBB" opacity="0.694519928" points="25.41665 12.9277395 19.3387505 12.9277395 15.6384148 16.7071157 21.7163142 16.7071157"></polygon>
                        <polygon id="Fill-14" fill="#BBBBBB" opacity="0.694519928" points="11.3816539 21.0547796 17.4595533 21.0547796 20.5043254 17.9450467 14.4263509 17.9450467"></polygon>
                        <g id="Group-18" transform="translate(0.000000, 0.022483)" fill="#463F38">
                            <path d="M5.56549905,18.5128663 L9.06839938,14.9351427 L9.06839938,21.2245883 L5.56549905,24.8023119 L5.56549905,18.5128663 Z M10.2804332,13.6972194 L13.3247546,10.5878702 L13.3247546,16.8773158 L10.2804332,19.986665 L10.2804332,13.6972194 Z M14.5367885,9.34994689 L18.2507223,5.55668211 L18.2507223,11.8461277 L14.5367885,15.6393924 L14.5367885,9.34994689 Z M20.5043254,17.9225642 L17.4595533,21.032297 L11.3816539,21.032297 L14.4263509,17.9225642 L20.5043254,17.9225642 Z M15.6383847,16.6846408 L19.3387205,12.9052646 L25.4166199,12.9052646 L21.7163593,16.6846408 L15.6383847,16.6846408 Z M6.70045198,25.813491 L10.16962,22.2702203 L16.2475946,22.2702203 L12.7784266,25.813491 L6.70045198,25.813491 Z M19.462681,4.31883549 L20.6390293,3.11736002 C22.618642,1.09561549 25.8396635,1.09561549 27.8192011,3.11736002 C27.8563142,3.15526581 27.891549,3.19455278 27.9273849,3.23337936 C28.8170462,4.19859586 29.3062772,5.45263301 29.3062772,6.78416985 C29.3062772,8.16926589 28.7782052,9.47149097 27.8192011,10.4509797 C27.8140925,10.4561975 27.8089087,10.461492 27.8039502,10.4670168 L26.6286538,11.6673412 L20.5507543,11.6673412 L25.0465413,7.07552267 C25.309563,6.80688263 25.336008,6.38892141 25.1273786,6.0892815 C25.1033377,6.05475193 25.0768177,6.02137335 25.0465413,5.99037347 C24.7530177,5.69073356 24.2774598,5.69073356 23.9840114,5.99037347 L19.462681,10.6082043 L19.462681,4.31883549 Z M28.890521,2.02323313 C26.32033,-0.602011494 22.1380506,-0.602011494 19.5677094,2.02323313 L4.27150095,17.6460974 C4.1179401,17.8029384 4.04063378,18.015794 4.05047549,18.2294936 L4.05047549,26.3496969 L1.25475143,29.2051386 C1.24137872,29.218797 1.22928317,29.2332226 1.21718762,29.2475716 L1.21681198,29.2471879 L-3.0051049e-05,30.5286953 L2.05268187,30.5395145 L2.24951623,30.3509831 C2.27288092,30.3321837 2.29571971,30.31231 2.31728134,30.2902878 L5.18542842,27.360876 L13.0952397,27.360876 C13.3181434,27.360876 13.5185839,27.2616611 13.6571943,27.104283 L28.8907464,11.5453368 C28.8961556,11.539812 28.9014896,11.5342106 28.9066734,11.5286091 C30.1416212,10.2587651 30.8213759,8.5748732 30.8213759,6.78416985 C30.8213759,4.98571653 30.135611,3.29491872 28.890521,2.02323313 L28.890521,2.02323313 Z" id="Fill-16"></path>
                        </g>
                    </g>
                    <path d="M50.9494923,16.0549596 C50.9494923,18.645598 49.0329867,20.6748622 46.5863807,20.6748622 C44.1396996,20.6748622 42.223194,18.645598 42.223194,16.0549596 C42.223194,13.4643213 44.1396996,11.435057 46.5863807,11.435057 C49.0329867,11.435057 50.9494923,13.4643213 50.9494923,16.0549596 M51.5717743,10.8337821 C50.25937,9.45267619 48.4889125,8.69210492 46.5863807,8.69210492 C44.808711,8.69210492 43.1464373,9.3562236 41.8652861,10.5699762 L41.8673145,8.80436438 L41.8673145,8.65097637 L37.569564,8.65112984 L37.569564,11.0775609 L39.2277056,11.7985382 L39.2280061,27.9871503 L37.6943509,28.4958092 L37.6943509,30.4790341 L39.5343014,30.4790341 L39.5343014,30.4786504 L41.5574882,30.4781133 L41.5574882,30.4790341 L43.3974387,30.4790341 L43.3974387,28.4958092 L41.8523641,27.9833904 L41.8523641,21.9952729 L41.8530403,21.4162504 C43.1357692,22.6373694 44.8030764,23.3055549 46.5863807,23.3055549 C48.4889125,23.3055549 50.25937,22.5449836 51.5717743,21.1638777 C52.8738111,19.7936677 53.5908291,17.9593036 53.5908291,15.9988683 C53.5908291,14.0383562 52.8738111,12.2039921 51.5717743,10.8337821" id="Fill-19" fill="#463F38"></path>
                    <path d="M77.2442113,15.9625662 C77.2442113,13.4483533 79.2468131,11.4028985 81.7084446,11.4028985 C83.0064245,11.4028985 84.2222899,11.9704111 85.0717579,12.9663205 L77.4834928,17.4352906 C77.3245979,16.9608543 77.2442113,16.4663142 77.2442113,15.9625662 L77.2442113,15.9625662 Z M85.833026,17.7059257 C85.1470357,19.3957259 83.5064739,20.5221572 81.7084446,20.5221572 C80.6453137,20.5221572 79.6279355,20.1390324 78.8212903,19.4391565 L86.1040113,15.1500471 L86.1064906,15.1617104 L88.5384467,13.7234388 L88.4983285,13.6031225 C87.5090481,10.6327357 84.780413,8.63708014 81.7084446,8.63708014 C77.7535766,8.63708014 74.5361612,11.9232207 74.5361612,15.9625662 C74.5361612,20.0019117 77.7535766,23.2880522 81.7084446,23.2880522 C83.3490816,23.2880522 84.9526055,22.7074951 86.2237648,21.6533458 C87.4385032,20.6459265 88.303147,19.2485533 88.6726997,17.7059257 L85.833026,17.7059257 Z" id="Fill-21" fill="#463F38"></path>
                </g>
            </g>
        </g>
    </g>
</svg>