<?xml version="1.0" encoding="UTF-8" standalone="no"?>
<!DOCTYPE svg PUBLIC "-//W3C//DTD SVG 1.1//EN" "http://www.w3.org/Graphics/SVG/1.1/DTD/svg11.dtd">
<svg width="100%" height="100%" viewBox="0 0 1410 480" version="1.1" xmlns="http://www.w3.org/2000/svg" xmlns:xlink="http://www.w3.org/1999/xlink" xml:space="preserve" xmlns:serif="http://www.serif.com/" style="fill-rule:evenodd;clip-rule:evenodd;stroke-linejoin:round;stroke-miterlimit:1.41421;">
    <g transform="matrix(1,0,0,1,-3947.77,-1040.2)">
        <g transform="matrix(1.29412,0,0,0.772727,2972.06,7.60868)">
            <g>
                <g transform="matrix(1,0,0,1,29.5945,1.30576)">
                    <g id="Shape" transform="matrix(3.83846,0,0,6.42842,1094.38,1385.95)">
                        <path d="M185.68,58.724C184.266,59.211 184.045,59.327 183.162,59.56C182.248,59.802 179.318,60.429 178.044,58.585C176.765,56.733 176.985,53.004 176.966,51.523L176.967,36.892L185.649,36.892L185.649,29.159L176.97,29.159L176.97,8.644L168.579,10.605L168.577,29.159L162.102,29.159L162.102,36.892L168.577,36.892L168.577,56.018C168.577,60.359 169.576,63.557 171.53,65.613C173.53,67.669 176.166,68.76 179.528,68.675C183.801,68.566 186.528,66.889 187.395,66.437L185.68,58.724Z" style="fill:rgb(33,33,33);fill-rule:nonzero;"/>
                    </g>
                    <g transform="matrix(0.77163,-0.0363455,0.0217022,1.29228,402.113,55.8221)">
                        <path d="M1639.29,1356.04C1639.77,1355 1639.49,1355.65 1638.67,1357.35C1636.11,1362.71 1633.07,1367.83 1629.6,1372.65C1626.09,1377.52 1622.14,1382.08 1617.82,1386.24C1613.36,1390.56 1608.49,1394.45 1603.3,1397.87C1598.16,1401.25 1592.71,1404.16 1587.04,1406.54C1580.79,1409.16 1574.28,1411.14 1567.64,1412.44C1561.41,1413.65 1549.52,1414.27 1543.18,1414.29C1536.83,1414.31 1530.48,1413.73 1524.24,1412.55C1517.58,1411.3 1511.06,1409.36 1504.79,1406.77C1499.1,1404.43 1493.63,1401.55 1488.47,1398.2C1483.26,1394.81 1478.37,1390.94 1473.88,1386.66C1469.53,1382.52 1465.56,1377.98 1462.02,1373.13C1458.52,1368.34 1455.45,1363.24 1452.86,1357.9C1450.59,1353.23 1448.69,1348.38 1447.17,1343.42C1445.7,1338.57 1444.59,1333.6 1443.87,1328.57C1442.32,1317.77 1442.54,1306.71 1444.53,1295.98C1446.27,1286.62 1449.35,1277.53 1453.67,1269.05C1458.81,1258.94 1465.67,1249.73 1473.88,1241.91C1481.95,1234.22 1491.3,1227.88 1501.44,1223.25C1509.29,1219.67 1517.59,1217.12 1526.09,1215.69C1529.52,1215.11 1532.97,1214.71 1536.44,1214.49C1538.25,1214.37 1540.07,1214.31 1541.89,1214.29C1542.32,1214.29 1542.75,1214.29 1543.18,1214.29C1545,1214.3 1546.82,1214.35 1548.64,1214.45C1552.11,1214.65 1555.57,1215.03 1559.01,1215.59C1567.52,1216.97 1575.85,1219.47 1583.72,1223C1593.8,1227.53 1603.12,1233.74 1611.18,1241.29C1619.45,1249.04 1626.4,1258.18 1631.63,1268.24C1635.38,1275.44 1638.24,1283.11 1640.13,1291.01L1601.04,1310L1601.03,1309.93L1574.91,1322.69L1569.45,1325.34L1569.46,1325.35L1503.68,1357.48C1508.54,1361.9 1514.14,1365.49 1520.19,1368.05C1524.03,1369.68 1528.04,1370.88 1532.14,1371.64C1535.61,1372.28 1541.33,1373.05 1544.86,1373.06C1549,1373.08 1552.2,1373.01 1557.73,1371.98C1561.18,1371.34 1566.25,1370.16 1570.65,1368.48C1577.39,1365.88 1583.41,1361.48 1588.64,1356.5C1593.25,1352.11 1597.13,1346.97 1600.1,1341.34L1639.29,1356.04ZM1585.96,1275.01C1584.8,1273.74 1583.59,1272.52 1582.32,1271.35C1577.82,1267.22 1572.69,1263.79 1567.14,1261.23C1562.71,1259.19 1558.02,1257.72 1553.21,1256.86C1551.04,1256.48 1548.84,1256.21 1546.64,1256.07C1545.57,1256 1544.5,1255.97 1543.43,1255.95C1543.17,1255.95 1542.92,1255.95 1542.66,1255.95C1539.44,1255.97 1536.22,1256.23 1533.04,1256.77C1528.22,1257.59 1523.51,1259.01 1519.06,1261.01C1513.7,1263.42 1508.72,1266.64 1504.31,1270.53C1498.99,1275.22 1494.52,1280.88 1491.21,1287.15C1488.81,1291.71 1487.01,1296.59 1485.9,1301.62C1484.98,1305.78 1484.52,1310.03 1484.52,1314.29C1484.52,1316.96 1484.7,1319.64 1485.07,1322.29C1485.15,1322.92 1485.25,1323.54 1485.35,1324.16L1585.96,1275.01Z" style="fill:rgb(33,33,33);"/>
                    </g>
                    <g transform="matrix(0.194742,0,0,0.326142,1305.95,1370.85)">
                        <circle cx="1100" cy="1300" r="100" style="fill:rgb(33,33,33);"/>
                    </g>
                    <g transform="matrix(0.772727,0,0,1.29412,-6179.94,-17195.9)">
                        <g>
                            <path d="M9831.64,14500C9886.77,14500 9931.53,14544.8 9931.53,14599.9C9931.53,14655.1 9886.77,14699.8 9831.64,14699.8C9776.5,14699.8 9731.74,14655.1 9731.74,14599.9C9731.74,14544.8 9776.5,14500 9831.64,14500ZM9831.64,14541.9C9863.67,14541.9 9889.67,14567.9 9889.67,14599.9C9889.67,14632 9863.67,14658 9831.64,14658C9799.6,14658 9773.6,14632 9773.6,14599.9C9773.6,14567.9 9799.6,14541.9 9831.64,14541.9Z" style="fill:rgb(33,33,33);"/>
                        </g>
                    </g>
                    <g transform="matrix(0.772727,0,0,1.29412,-2326.18,-11.1523)">
                        <path d="M4524.55,1480.81L4524.55,1262.84L4503.14,1262.84L4503.14,1224.34L4560.19,1224.39L4567.36,1238.34C4572.4,1234.75 4577.79,1231.63 4583.44,1229.08C4590.57,1225.87 4598.11,1223.55 4605.82,1222.22C4609.11,1221.65 4612.44,1221.26 4615.77,1221.05C4617.41,1220.95 4619.06,1220.89 4620.7,1220.87C4621.12,1220.87 4621.53,1220.87 4621.94,1220.87C4623.59,1220.88 4625.24,1220.92 4626.88,1221.02C4630.22,1221.2 4633.55,1221.57 4636.86,1222.12C4644.58,1223.4 4652.13,1225.67 4659.29,1228.84C4668.59,1232.97 4677.19,1238.61 4684.72,1245.44C4691.5,1251.58 4697.41,1258.68 4702.26,1266.43C4707.54,1274.88 4711.56,1284.11 4714.15,1293.73C4718.54,1309.94 4718.89,1327.23 4715.19,1343.62C4712.99,1353.38 4709.35,1362.82 4704.4,1371.52C4699.19,1380.68 4692.53,1389.02 4684.72,1396.1C4680.6,1399.83 4676.15,1403.22 4671.44,1406.19C4666.64,1409.23 4661.57,1411.83 4656.31,1413.95C4650.79,1416.17 4645.06,1417.87 4639.23,1418.99C4633.53,1420.09 4627.74,1420.64 4621.94,1420.66C4616.14,1420.68 4610.34,1420.16 4604.64,1419.1C4598.78,1418.02 4593.04,1416.36 4587.51,1414.17C4582.23,1412.08 4577.14,1409.51 4572.32,1406.51C4570.63,1405.45 4568.98,1404.35 4567.36,1403.19L4567.36,1480.8L4588.93,1485.79L4588.98,1485.79L4588.98,1485.8L4588.98,1485.8L4588.98,1519.77L4588.98,1519.77L4588.98,1519.8L4503.14,1519.8L4503.14,1485.8L4503.14,1485.8L4524.55,1480.81ZM4622.32,1262.73C4654.35,1262.73 4680.36,1288.74 4680.36,1320.77C4680.36,1352.8 4654.35,1378.8 4622.32,1378.8C4590.29,1378.8 4564.28,1352.8 4564.28,1320.77C4564.28,1288.74 4590.29,1262.73 4622.32,1262.73Z" style="fill:rgb(33,33,33);"/>
                    </g>
                </g>
                <g transform="matrix(1,0,0,1,-2.72491,0)">
                    <g>
                        <g id="Bottom">
                            <g transform="matrix(0.772727,0,0,1.29412,-6152.77,-21254.8)">
                                <path d="M9282.81,17728.4L9189.51,17728.4L9136.27,17781.6L9229.57,17781.6L9282.81,17728.4Z" style="fill:rgb(225,222,217);"/>
                            </g>
                            <g transform="matrix(0.772727,0,0,1.29412,-6152.77,-21254.8)">
                                <path d="M9365.18,17646L9271.89,17646L9217.64,17700.2L9310.93,17700.2L9365.18,17646Z" style="fill:rgb(225,222,217);"/>
                            </g>
                            <g transform="matrix(0.772727,0,0,1.29412,-6152.77,-21254.8)">
                                <path d="M9388.75,17509C9391.36,17511.5 9393.75,17514.2 9395.94,17517.1C9398.58,17520.5 9400.94,17524.1 9402.99,17527.9C9406.54,17534.4 9409.15,17541.5 9410.74,17548.8C9412.59,17557.2 9413.06,17566 9412.13,17574.5C9411.6,17579.5 9410.61,17584.4 9409.17,17589.2C9407.78,17593.7 9405.98,17598.2 9403.8,17602.4C9400.96,17608 9397.47,17613.2 9393.43,17617.9L9300.01,17617.9L9352.87,17565C9354.84,17562.4 9355.66,17561.9 9356.51,17558.7C9356.83,17557.5 9356.99,17556.3 9356.99,17555.1C9356.99,17552.6 9356.34,17550.2 9355.11,17548C9354.5,17547 9353.74,17546 9352.87,17545.1L9352.77,17545L9388.75,17509Z" style="fill:rgb(225,222,217);"/>
                            </g>
                            <g transform="matrix(0.772727,0,0,1.29412,-6152.77,-21254.8)">
                                <path d="M9201.44,17809.7L9108.14,17809.7L9061.02,17856.9L9154.32,17856.9L9201.44,17809.7Z" style="fill:rgb(225,222,217);"/>
                            </g>
                        </g>
                        <g id="Top">
                            <g transform="matrix(0.772727,0,0,1.29412,-6152.77,-21254.8)">
                                <path d="M9041.52,17744.1L9041.52,17836.6L9088.62,17789.5L9088.62,17697L9041.52,17744.1Z" style="fill:white;"/>
                            </g>
                            <g transform="matrix(0.772727,0,0,1.29412,-6152.77,-21254.8)">
                                <path d="M9197.6,17588L9197.6,17680.5L9251.85,17626.3L9251.85,17533.7L9197.6,17588Z" style="fill:white;"/>
                            </g>
                            <g transform="matrix(0.772727,0,0,1.29412,-6152.77,-21254.8)">
                                <path d="M9116.75,17668.8L9116.75,17761.4L9169.48,17708.6L9169.48,17616.1L9116.75,17668.8Z" style="fill:white;"/>
                            </g>
                            <g transform="matrix(0.772727,0,0,1.29412,-6152.77,-21254.8)">
                                <path d="M9352.77,17545C9350.5,17542.8 9349.51,17542.7 9346.57,17541.5C9345.35,17541.3 9344.14,17541.2 9342.93,17541C9339.73,17541.4 9338.76,17541.2 9335.9,17542.9C9334.84,17543.5 9333.96,17544.4 9332.99,17545.1L9279.98,17598.1L9279.98,17505.7C9280.18,17505.5 9280.4,17505.3 9280.61,17505.2C9283.21,17502.9 9285.95,17500.9 9288.82,17499C9292.65,17496.5 9296.71,17494.3 9300.92,17492.5C9305.06,17490.7 9309.36,17489.2 9313.75,17488.2C9317.8,17487.2 9321.92,17486.5 9326.06,17486.2C9327.5,17486.1 9328.93,17486 9330.37,17486C9331.01,17486 9331.65,17486 9332.28,17486C9332.6,17486 9332.92,17486 9333.24,17486C9334.2,17486 9335.16,17486 9336.11,17486C9337.87,17486.1 9339.62,17486.2 9341.37,17486.4C9347.27,17487.1 9353.1,17488.4 9358.72,17490.3C9365.36,17492.6 9371.7,17495.8 9377.51,17499.7C9381.55,17502.5 9385.33,17505.6 9388.75,17509L9352.77,17545Z" style="fill:white;"/>
                            </g>
                        </g>
                    </g>
                    <g transform="matrix(0.772727,0,0,1.29412,-6152.77,-21254.8)">
                        <path d="M8941.65,17936.5L9012.36,17865.7L9012.36,17732L9247.12,17497.2L9247.12,17497C9250.15,17494 9253.18,17491 9256.2,17488C9256.54,17487.7 9256.87,17487.3 9257.22,17487C9258.05,17486.2 9258.9,17485.4 9259.76,17484.7C9261.73,17482.9 9263.76,17481.2 9265.85,17479.6C9266.95,17478.7 9268.06,17477.9 9269.19,17477.1C9271.11,17475.7 9273.08,17474.4 9275.09,17473.1C9275.58,17472.8 9276.07,17472.5 9276.56,17472.2C9278.57,17471 9280.63,17469.9 9282.72,17468.8C9285.88,17467.2 9289.12,17465.7 9292.43,17464.4C9297.36,17462.5 9302.43,17460.9 9307.59,17459.7C9312.68,17458.5 9317.87,17457.6 9323.09,17457.2C9324.6,17457.1 9326.11,17457 9327.62,17456.9C9328.94,17456.8 9330.25,17456.8 9331.57,17456.8C9332.2,17456.8 9332.84,17456.8 9333.48,17456.8C9334.36,17456.8 9335.23,17456.8 9336.11,17456.8C9338.72,17456.9 9341.33,17457.1 9343.92,17457.4C9349.14,17457.9 9354.31,17458.8 9359.39,17460.1C9362.57,17460.9 9365.72,17461.9 9368.82,17463C9370.29,17463.5 9371.74,17464 9373.18,17464.6C9380.57,17467.6 9387.62,17471.3 9394.19,17475.8C9406.43,17484.2 9416.96,17495.1 9424.9,17507.6C9428.13,17512.7 9430.93,17518.1 9433.27,17523.7C9435.06,17527.9 9436.58,17532.3 9437.82,17536.8C9440.84,17547.7 9442.14,17559.2 9441.67,17570.5C9441.36,17577.9 9440.29,17585.3 9438.49,17592.5C9437.15,17597.9 9435.4,17603.1 9433.27,17608.2C9431.24,17613 9428.84,17617.8 9426.13,17622.3C9424.38,17625.2 9422.49,17628 9420.48,17630.7C9418.15,17633.9 9415.64,17636.9 9412.99,17639.8C9412.05,17640.8 9411.09,17641.8 9410.12,17642.8L9409.85,17643C9408.81,17644.1 9407.75,17645.1 9406.67,17646.1C9405.47,17647.2 9404.24,17648.3 9402.99,17649.3L9403.54,17648.9L9166.4,17886L9031.86,17886L8981.43,17936.5L8941.65,17936.5ZM9201.44,17809.7L9108.14,17809.7L9061.02,17856.9L9154.32,17856.9L9201.44,17809.7ZM9041.52,17744.1L9041.52,17836.6L9088.62,17789.5L9088.62,17697L9041.52,17744.1ZM9282.81,17728.4L9189.51,17728.4L9136.27,17781.6L9229.57,17781.6L9282.81,17728.4ZM9116.75,17668.8L9116.75,17761.4L9169.48,17708.6L9169.48,17616.1L9116.75,17668.8ZM9365.18,17646L9271.89,17646L9217.64,17700.2L9310.93,17700.2L9365.18,17646ZM9197.6,17588L9197.6,17680.5L9251.85,17626.3L9251.85,17533.7L9197.6,17588ZM9393.43,17617.9C9397.47,17613.2 9400.96,17608 9403.8,17602.4C9405.98,17598.2 9407.78,17593.7 9409.17,17589.2C9410.61,17584.4 9411.6,17579.5 9412.13,17574.5C9413.06,17566 9412.59,17557.2 9410.74,17548.8C9409.15,17541.5 9406.54,17534.4 9402.99,17527.9C9400.94,17524.1 9398.58,17520.5 9395.94,17517.1C9390.76,17510.4 9384.51,17504.5 9377.51,17499.7C9371.7,17495.8 9365.36,17492.6 9358.72,17490.3C9353.1,17488.4 9347.27,17487.1 9341.37,17486.4C9339.62,17486.2 9337.87,17486.1 9336.11,17486C9335.16,17486 9334.2,17486 9333.24,17486C9332.92,17486 9332.6,17486 9332.28,17486C9331.65,17486 9331.01,17486 9330.37,17486C9328.93,17486 9327.5,17486.1 9326.06,17486.2C9321.92,17486.5 9317.8,17487.2 9313.75,17488.2C9309.36,17489.2 9305.06,17490.7 9300.92,17492.5C9296.71,17494.3 9292.65,17496.5 9288.82,17499C9285.95,17500.9 9283.21,17502.9 9280.61,17505.2C9280.4,17505.3 9280.18,17505.5 9279.98,17505.7L9279.98,17598.1L9332.99,17545.1C9333.96,17544.4 9334.84,17543.5 9335.9,17542.9C9338.76,17541.2 9339.73,17541.4 9342.93,17541C9344.14,17541.2 9345.35,17541.3 9346.57,17541.5C9349.55,17542.7 9350.53,17542.8 9352.87,17545.1C9353.74,17546 9354.5,17547 9355.11,17548C9356.34,17550.2 9356.99,17552.6 9356.99,17555.1C9356.99,17556.3 9356.83,17557.5 9356.51,17558.7C9355.66,17561.9 9354.84,17562.4 9352.87,17565L9300.01,17617.9L9393.43,17617.9Z" style="fill:rgb(33,33,33);"/>
                    </g>
                </g>
            </g>
        </g>
    </g>
</svg>
