<?xml version="1.0" encoding="UTF-8"?>
<svg width="139px" height="50px" viewBox="0 0 139 50" version="1.1" xmlns="http://www.w3.org/2000/svg" xmlns:xlink="http://www.w3.org/1999/xlink">
    <!-- Generator: Sketch 47.1 (45422) - http://www.bohemiancoding.com/sketch -->
    <title>Group</title>
    <desc>Created with Sketch.</desc>
    <defs></defs>
    <g id="Page-1" stroke="none" stroke-width="1" fill="none" fill-rule="evenodd">
        <g id="Roadmap" transform="translate(-15.000000, -14.000000)" fill="#FFFFFF">
            <g id="Group-4" transform="translate(15.000000, 14.000000)">
                <g id="Group">
                    <g transform="translate(55.000000, 8.000000)">
                        <g id="Shape" transform="translate(71.272230, 0.029873)" fill-rule="nonzero">
                            <path d="M11.5023958,25.8131601 C10.8155551,26.0609917 10.7082059,26.1200234 10.2792948,26.2385958 C9.83532562,26.3617483 8.41209843,26.6808251 7.79326176,25.7424238 C7.17199638,24.7999513 7.27885986,22.9022841 7.26963074,22.1486114 L7.27011648,14.7029773 L11.4873378,14.7029773 L11.4873378,10.7676968 L7.27157371,10.7676968 L7.27157371,0.327728 L3.19570364,1.32566994 L3.19473215,10.7676968 L0.0495457928,10.7676968 L0.0495457928,14.7029773 L3.19473215,14.7029773 L3.19473215,24.4360918 C3.19473215,26.6452024 3.67998947,28.2726468 4.62913143,29.3189337 C5.60061756,30.3652206 6.88103628,30.9204244 8.51410447,30.8771684 C10.5896846,30.8216989 11.9143059,29.9682829 12.3354452,29.7382627 L11.5023958,25.8131601 Z"></path>
                        </g>
                        <g transform="translate(59.387782, 20.913360) rotate(-1.611027) translate(-59.387782, -20.913360) translate(49.387782, 10.413360)" id="Shape">
                            <path d="M19.2883633,14.5299123 C19.3352858,14.4235043 19.3079143,14.4900093 19.2277551,14.6639456 C18.9775017,15.2123565 18.6803259,15.7362117 18.3411153,16.2293723 C17.9979945,16.7276486 17.6118614,17.1942071 17.1895589,17.6198395 C16.7535706,18.0618423 16.2775027,18.4598495 15.7701532,18.8097684 C15.2676914,19.1555946 14.7349255,19.4533326 14.1806534,19.6968435 C13.5696833,19.96491 12.9332969,20.1674946 12.2842022,20.3005047 C11.6751873,20.4243064 10.5128778,20.487742 9.89310972,20.4897883 C9.27236411,20.4918346 8.65161851,20.4324917 8.04162598,20.3117594 C7.39057625,20.1838651 6.75321226,19.9853731 6.14028707,19.720376 C5.5840599,19.4809578 5.04933889,19.1862893 4.54492198,18.8435325 C4.03561732,18.496683 3.55759433,18.1007222 3.11867342,17.662812 C2.69343824,17.2392259 2.30535004,16.7747137 1.95929658,16.2784837 C1.61715334,15.7883926 1.31704483,15.2665837 1.06385883,14.7202191 C0.841954492,14.2424059 0.656219586,13.7461759 0.507631661,13.2386911 C0.363931497,12.7424611 0.25542321,12.2339532 0.185039457,11.7193064 C0.0335188754,10.6142994 0.0550250224,9.48269032 0.249557898,8.38484535 C0.419651969,7.42717258 0.720738027,6.49712498 1.14304055,5.62948981 C1.64550235,4.59508043 2.31610311,3.65275498 3.11867342,2.85264802 C3.90755799,2.06584207 4.82156924,1.41716201 5.8128071,0.943441392 C6.58018553,0.577152018 7.3915538,0.316247575 8.22247312,0.169936457 C8.5577735,0.110593485 8.89502899,0.0696672983 9.23423958,0.0471578954 C9.41117652,0.0348800393 9.58909101,0.0287411112 9.7670055,0.0266948019 C9.80904024,0.0266948019 9.85107498,0.0266948019 9.89310972,0.0266948019 C10.0710242,0.0277179566 10.2489387,0.0328337299 10.4268532,0.0430652767 C10.7660638,0.0635283702 11.1042968,0.102408248 11.4405748,0.15970491 C12.2724716,0.300900255 13.0867725,0.556688924 13.8561061,0.917862525 C14.8414786,1.38135159 15.7525572,2.01673065 16.5404642,2.78921243 C17.3488999,3.5821573 18.0282986,4.51732068 18.5395584,5.54661428 C18.9061404,6.28328565 19.1857203,7.06804528 19.3704777,7.87633748 L15.5492264,9.81930821 L15.5482488,9.81214613 L12.9948826,11.1176915 L12.4611392,11.3888275 L12.4621167,11.3898506 L6.03177878,14.6772466 C6.50686912,15.129481 7.05429832,15.4967935 7.64571736,15.7587211 C8.02109738,15.9254953 8.41309579,16.0482739 8.81389216,16.1260336 C9.15310275,16.1915155 9.71226258,16.2702984 10.0573385,16.2713216 C10.4620451,16.2733679 10.7748617,16.2662058 11.3154481,16.1608209 C11.6527036,16.095339 12.1483225,15.9746067 12.5784454,15.8027168 C13.2373156,15.5366965 13.825802,15.0865085 14.3370617,14.5769775 C14.7877133,14.1278126 15.1670035,13.601911 15.4573365,13.025875 L19.2883633,14.5299123 Z M14.0750778,6.23929 C13.9616817,6.10934935 13.8433979,5.98452448 13.7192488,5.86481539 C13.2793503,5.4422525 12.7778661,5.09131045 12.2353246,4.82938285 C11.802269,4.6206593 11.3437971,4.47025556 10.8735945,4.38226426 C10.6614657,4.34338438 10.4464042,4.31575921 10.2313428,4.30143504 C10.1267447,4.29427296 10.0221466,4.29120349 9.91754852,4.28915718 C9.89213217,4.28915718 9.86769337,4.28915718 9.84227701,4.28915718 C9.52750522,4.29120349 9.21273343,4.31780551 8.90187185,4.37305587 C8.43069173,4.45695455 7.97026467,4.60224251 7.53525397,4.80687345 C7.01128602,5.05345373 6.52446506,5.38290953 6.09336457,5.7809167 C5.57330683,6.26077625 5.13634103,6.83988179 4.81277127,7.48139977 C4.57815876,7.94795831 4.40219937,8.44725779 4.29369108,8.96190459 C4.20375629,9.38753694 4.15878889,9.82237767 4.15878889,10.2582416 C4.15878889,10.5314239 4.17638483,10.8056293 4.21255426,11.0767653 C4.22037467,11.1412241 4.2301502,11.2046596 4.23992572,11.2680952 L14.0750778,6.23929 Z"></path>
                        </g>
                        <g transform="translate(43.999150, 25.745493)" id="Oval">
                            <ellipse cx="2.46438875" cy="2.58184501" rx="2.46438875" ry="2.58184501"></ellipse>
                        </g>
                        <g transform="translate(23.596645, 10.436879)" id="Shape">
                            <g>
                                <path d="M9.84116031,0 C15.23209,0 19.6089813,4.5896123 19.6089813,10.2344256 C19.6089813,15.8894836 15.23209,20.4688513 9.84116031,20.4688513 C4.44925273,20.4688513 0.0723614729,15.8894836 0.0723614729,10.2344256 C0.0723614729,4.5896123 4.44925273,0 9.84116031,0 Z M9.84116031,4.29251686 C12.9732387,4.29251686 15.5156688,6.95613114 15.5156688,10.2344256 C15.5156688,13.5229648 12.9732387,16.1865791 9.84116031,16.1865791 C6.70810411,16.1865791 4.16567398,13.5229648 4.16567398,10.2344256 C4.16567398,6.95613114 6.70810411,4.29251686 9.84116031,4.29251686 Z"></path>
                            </g>
                        </g>
                        <g transform="translate(0.051844, 10.344582)" id="Shape">
                            <path d="M2.10728343,26.7191246 L2.10728343,4.38881676 L0.0136900084,4.38881676 L0.0136900084,0.444618691 L5.59236843,0.449741026 L6.29349243,1.87887253 C6.78633273,1.51108887 7.31339805,1.19145516 7.86588768,0.930216064 C8.56310025,0.601362147 9.30040498,0.363685796 10.0543333,0.227431681 C10.3760485,0.16903706 10.7016751,0.129082846 11.0273018,0.107569038 C11.1876704,0.0973243679 11.349017,0.0911775657 11.5093856,0.0891286316 C11.5504556,0.0891286316 11.5905478,0.0891286316 11.63064,0.0891286316 C11.7919865,0.0901530987 11.953333,0.0942509668 12.1137017,0.104495637 C12.4403062,0.122936044 12.7659328,0.160841324 13.0896037,0.21718701 C13.8445099,0.34831879 14.5827925,0.580872806 15.2829386,0.905628855 C16.1923463,1.32873374 17.033304,1.90653314 17.7696309,2.60624413 C18.4326184,3.23526688 19.0105324,3.96263847 19.4847934,4.75660042 C20.0011023,5.62227506 20.3942011,6.56785813 20.6474662,7.55339541 C21.0767458,9.21405647 21.1109708,10.98536 20.7491634,12.6644614 C20.5340347,13.6643413 20.1780945,14.6314381 19.6940549,15.5227244 C19.184591,16.4611362 18.5333378,17.3155417 17.7696309,18.0408644 C17.3667535,18.4229906 16.9316068,18.7702849 16.4710358,19.0745516 C16.0016641,19.3859896 15.5058902,19.652351 14.991537,19.8695381 C14.4517596,20.0969697 13.8914471,20.2711291 13.321356,20.3858694 C12.7639771,20.4985608 12.1977975,20.5549065 11.63064,20.5569554 C11.0634825,20.5590044 10.496325,20.5057321 9.93894609,20.3971386 C9.36592145,20.2864961 8.80463111,20.1164346 8.26387578,19.8920763 C7.74756689,19.6779627 7.2498373,19.4146747 6.77850987,19.1073346 C6.61325191,18.9987411 6.45190538,18.8860497 6.29349243,18.7672115 L6.29349243,26.7181002 L8.40273158,27.2293092 L8.40762086,27.2293092 L8.40762086,27.2303337 L8.40762086,27.2303337 L8.40762086,30.7104482 L8.40762086,30.7104482 L8.40762086,30.7135216 L0.0136900084,30.7135216 L0.0136900084,27.2303337 L0.0136900084,27.2303337 L2.10728343,26.7191246 Z M11.6677986,4.37754762 C14.7998769,4.37754762 17.3432849,7.04218637 17.3432849,10.3235543 C17.3432849,13.6049222 14.7998769,16.2685364 11.6677986,16.2685364 C8.53572023,16.2685364 5.99231224,13.6049222 5.99231224,10.3235543 C5.99231224,7.04218637 8.53572023,4.37754762 11.6677986,4.37754762 Z"></path>
                        </g>
                    </g>
                    <g id="Shape">
                        <g transform="translate(0.023072, 0.027688)">
                            <path d="M0.0636363122,47.9952793 L6.98628806,40.9233422 L6.98628806,27.5685683 L29.969766,4.11530803 L29.969766,4.09533081 C30.2664091,3.79567245 30.5630522,3.4960141 30.8587163,3.19635575 C30.892003,3.16638992 30.9243107,3.12643547 30.9585764,3.09646963 C31.0398351,3.01656074 31.1230518,2.93665185 31.2072475,2.86673156 C31.4001145,2.68693655 31.5988556,2.51713015 31.8034708,2.35731237 C31.911163,2.26741486 32.0198343,2.18750597 32.1304636,2.10759707 C32.3184354,1.96775651 32.5113024,1.83790456 32.7080855,1.7080526 C32.7560575,1.67808677 32.8040294,1.64812093 32.8520014,1.6181551 C33.0487845,1.49829176 33.2504626,1.38841703 33.4550779,1.2785423 C33.7644482,1.11872451 34.0816508,0.968895337 34.4057065,0.839043385 C34.8883634,0.649259762 35.3847267,0.489441974 35.8899011,0.369578634 C36.3882223,0.249715293 36.8963338,0.159817788 37.4073824,0.119863341 C37.5552144,0.109874729 37.7030465,0.0998861172 37.8508785,0.0898975055 C37.9801092,0.0799088938 38.1083608,0.0799088938 38.2375915,0.0799088938 C38.2992698,0.0799088938 38.361927,0.0799088938 38.4245843,0.0799088938 C38.5107381,0.0799088938 38.5959129,0.0799088938 38.6820666,0.0799088938 C38.9375909,0.0898975055 39.1931152,0.109874729 39.4466814,0.139840564 C39.95773,0.189783623 40.4638834,0.279681128 40.9612256,0.409533081 C41.2725541,0.489441974 41.5809454,0.589328092 41.8844417,0.69920282 C42.0283577,0.749145879 42.1703156,0.799088938 42.3112945,0.859020608 C43.0347904,1.15867896 43.7249996,1.52825759 44.3682159,1.97774512 C45.5665366,2.81678851 46.5974449,3.90554718 47.3747869,5.15412365 C47.6910104,5.66354285 47.9651361,6.20292788 48.1942268,6.76229013 C48.3694714,7.18181183 48.5182825,7.62131074 48.639681,8.07079827 C48.9353451,9.15955695 49.0626177,10.3082473 49.0166038,11.4369604 C48.9862541,12.1761177 48.881499,12.915275 48.7052753,13.634455 C48.5740866,14.17384 48.4027581,14.6932478 48.1942268,15.202667 C47.9954857,15.6821204 47.7605209,16.1615738 47.4952064,16.6110613 C47.3238778,16.900731 47.138843,17.1804122 46.94206,17.4501047 C46.7139483,17.7697403 46.4682142,18.0693986 46.2087739,18.3590683 C46.116746,18.4589545 46.02276,18.5588406 45.9277951,18.6587267 L45.9013615,18.6787039 C45.7995434,18.7885786 45.6957673,18.8884648 45.5900331,18.9883509 C45.4725507,19.0982256 45.3521312,19.2081003 45.2297537,19.3079865 L45.2835998,19.268032 L22.067115,42.9510304 L8.89537743,42.9510304 L3.95817862,47.9952793 L0.0636363122,47.9952793 Z M25.4976018,35.3297197 L16.3633434,35.3297197 L11.7502003,40.0443444 L20.8844587,40.0443444 L25.4976018,35.3297197 Z M9.84111093,28.7771904 L9.84111093,38.0166562 L14.452296,33.3120201 L14.452296,24.0725542 L9.84111093,28.7771904 Z M33.463889,27.2089783 L24.3296307,27.2089783 L19.1173272,32.5229198 L28.2515856,32.5229198 L33.463889,27.2089783 Z M17.2062798,21.2557657 L17.2062798,30.5052202 L22.3686533,25.2312332 L22.3686533,15.9917674 L17.2062798,21.2557657 Z M41.5280783,18.9783623 L32.394799,18.9783623 L27.0836145,24.3921898 L36.2168938,24.3921898 L41.5280783,18.9783623 Z M25.121658,13.1849675 L25.121658,22.4244333 L30.4328425,17.0106058 L30.4328425,7.76115131 L25.121658,13.1849675 Z M44.2938104,16.1715624 C44.6893345,15.7020976 45.0310126,15.1826898 45.3090543,14.6233276 C45.5224807,14.2038059 45.6987043,13.7543183 45.8347881,13.3048308 C45.9757671,12.8253774 46.07269,12.3359355 46.1245781,11.8365049 C46.215627,10.9874729 46.169613,10.1084751 45.9884943,9.26943168 C45.8328301,8.54026302 45.5773058,7.83107159 45.2297537,7.18181183 C45.0290545,6.80224458 44.7980058,6.44265456 44.5395444,6.10304176 C44.032412,5.43380478 43.4205244,4.84447668 42.7352102,4.36502332 C42.1663995,3.97546746 41.5457007,3.65583189 40.8956313,3.42609382 C40.3454219,3.2363102 39.7746532,3.10645825 39.1970313,3.03653796 C39.0257027,3.01656074 38.8543742,3.00657213 38.6820666,2.99658352 C38.5890597,2.99658352 38.4950738,2.99658352 38.4010879,2.99658352 C38.3697592,2.99658352 38.3384306,2.99658352 38.3071019,2.99658352 C38.2454236,2.99658352 38.1827664,2.99658352 38.1201091,2.99658352 C37.9791302,2.99658352 37.8391303,3.00657213 37.6981514,3.01656074 C37.292837,3.04652657 36.8894807,3.11644686 36.4929775,3.21633297 C36.0631876,3.31621909 35.642209,3.46604827 35.2368946,3.64584328 C34.8247271,3.82563829 34.4272449,4.04538775 34.0522802,4.29510304 C33.7713014,4.48488666 33.5030499,4.6846589 33.2485046,4.91439697 C33.2279452,4.92438558 33.2064067,4.9443628 33.1868263,4.96434003 L33.1868263,14.1938173 L38.3766124,8.89985304 C38.4715773,8.82993276 38.5577311,8.74003526 38.6615072,8.68010359 C38.941507,8.51029719 39.036472,8.53027441 39.3497584,8.49031996 C39.4682199,8.51029719 39.5866813,8.5202858 39.7061218,8.54026302 C39.9978698,8.66012636 40.0938138,8.67011497 40.3229045,8.89985304 C40.4080792,8.98975055 40.4824848,9.08963667 40.542205,9.18952278 C40.6626245,9.40927224 40.7262608,9.64899892 40.7262608,9.89871421 C40.7262608,10.0185776 40.7105965,10.1384409 40.6792678,10.2583042 C40.5960511,10.5779398 40.5157715,10.6278829 40.3229045,10.8875868 L35.1478038,16.1715624 L44.2938104,16.1715624 Z"></path>
                        </g>
                    </g>
                </g>
            </g>
        </g>
    </g>
</svg>
