<?xml version="1.0" encoding="UTF-8" standalone="no"?>
<!DOCTYPE svg PUBLIC "-//W3C//DTD SVG 1.1//EN" "http://www.w3.org/Graphics/SVG/1.1/DTD/svg11.dtd">
<svg width="100%" height="100%" viewBox="0 0 496 496" version="1.1" xmlns="http://www.w3.org/2000/svg" xmlns:xlink="http://www.w3.org/1999/xlink" xml:space="preserve" xmlns:serif="http://www.serif.com/" style="fill-rule:evenodd;clip-rule:evenodd;stroke-linejoin:round;stroke-miterlimit:1.41421;">
    <g>
        <path d="M494.485,243.301L457.236,191.916L463.837,128.809C464.197,125.36 462.298,122.075 459.131,120.664L401.152,94.864L375.352,36.882C373.934,33.722 370.653,31.827 367.207,32.171L304.088,38.768L252.707,1.523C249.906,-0.508 246.117,-0.508 243.317,1.523L191.931,38.768L128.816,32.171C125.375,31.843 122.105,33.733 120.672,36.874L94.872,94.857L36.889,120.664C33.725,122.071 31.827,125.356 32.186,128.801L38.784,191.916L1.539,243.301C-0.493,246.102 -0.493,249.891 1.539,252.692L38.784,304.073L32.186,367.192C31.823,370.638 33.721,373.926 36.889,375.337L94.872,401.137L120.672,459.119C122.097,462.268 125.371,464.162 128.816,463.83L191.931,457.229L243.317,494.478C246.117,496.509 249.906,496.509 252.707,494.478L304.088,457.229L367.207,463.83C370.653,464.178 373.93,462.283 375.352,459.127L401.152,401.144L459.131,375.337C462.294,373.926 464.193,370.645 463.837,367.2L457.236,304.081L494.485,252.7C496.52,249.899 496.52,246.102 494.485,243.301ZM442.486,297.163C441.326,298.761 440.799,300.729 441.006,302.69L447.311,363.071L391.832,387.77C390.019,388.567 388.566,390.012 387.765,391.824L363.086,447.303L302.69,440.991C300.729,440.788 298.764,441.319 297.17,442.479L248.012,478.111L198.845,442.479C197.482,441.483 195.841,440.948 194.158,440.952C193.877,440.952 193.595,440.952 193.357,440.991L132.957,447.303L108.278,391.824C107.473,390.012 106.028,388.563 104.215,387.758L48.705,363.071L55.01,302.69C55.213,300.729 54.685,298.761 53.529,297.163L17.897,247.997L53.529,198.83C54.685,197.232 55.213,195.264 55.01,193.303L48.705,132.918L104.184,108.223C105.996,107.427 107.446,105.981 108.246,104.169L132.925,48.69L193.326,55.002C195.283,55.198 197.248,54.666 198.845,53.514L248.012,17.882L297.178,53.514C298.772,54.67 300.737,55.198 302.698,55.002L363.094,48.69L387.773,104.169C388.578,105.981 390.027,107.427 391.84,108.231L447.318,132.918L441.014,193.303C440.807,195.264 441.334,197.232 442.494,198.83L478.122,247.997L442.486,297.163Z" style="fill:rgb(30,129,206);fill-rule:nonzero;"/>
        <path d="M455.877,128L395.078,100.954L368.008,40.132L301.842,47.042L248.012,8.004L194.15,47.042L128.015,40.132L100.965,100.927L40.143,128L47.057,194.166L8.019,247.997L47.057,301.858L40.143,367.993L100.942,395.039L128.015,455.862L194.181,448.952L248.012,487.99L301.873,448.952L368.008,455.862L395.054,395.063L455.877,367.993L448.963,301.827L488.005,247.997L448.963,194.135L455.877,128Z" style="fill:rgb(87,164,255);fill-rule:nonzero;"/>
        <g transform="matrix(2.1285,0,0,2.1285,117.977,121.589)">
            <clipPath id="_clip1">
                <path d="M0,116L16.969,99.031L16.969,66.926L73.312,10.583L73.312,10.528C74.039,9.81 74.766,9.093 75.49,8.373C75.572,8.294 75.653,8.214 75.735,8.136C75.936,7.943 76.139,7.754 76.346,7.569C76.818,7.144 77.306,6.737 77.808,6.347C78.071,6.143 78.338,5.943 78.609,5.749C79.071,5.419 79.543,5.103 80.025,4.803C80.142,4.731 80.259,4.659 80.377,4.589C80.861,4.299 81.354,4.025 81.855,3.766C82.614,3.376 83.393,3.023 84.187,2.709C85.369,2.242 86.586,1.86 87.824,1.571C89.048,1.285 90.292,1.085 91.544,0.977C91.907,0.946 92.27,0.922 92.633,0.906C92.948,0.892 93.264,0.884 93.579,0.88C93.732,0.88 93.885,0.88 94.038,0.88C94.249,0.883 94.459,0.886 94.669,0.893C95.296,0.914 95.922,0.956 96.545,1.021C97.796,1.151 99.037,1.372 100.256,1.68C101.021,1.873 101.776,2.101 102.52,2.361C102.872,2.485 103.221,2.617 103.568,2.755C105.339,3.464 107.033,4.367 108.608,5.444C111.547,7.455 114.073,10.067 115.978,13.077C116.754,14.302 117.427,15.593 117.988,16.93C118.419,17.956 118.783,19.01 119.079,20.082C119.805,22.709 120.117,25.448 120.003,28.171C119.929,29.952 119.673,31.726 119.24,33.455C118.919,34.739 118.5,35.998 117.988,37.218C117.5,38.382 116.926,39.511 116.274,40.593C115.854,41.288 115.402,41.964 114.919,42.617C114.36,43.376 113.758,44.103 113.12,44.797C112.895,45.041 112.665,45.281 112.431,45.516L112.367,45.581C112.117,45.83 111.864,46.075 111.604,46.315C111.316,46.581 111.02,46.84 110.721,47.095L110.852,46.985L53.94,103.897L21.649,103.897L9.546,116L0,116ZM62.349,85.589L39.957,85.589L28.649,96.897L51.041,96.897L62.349,85.589ZM23.969,69.826L23.969,92.031L35.273,80.727L35.273,58.522L23.969,69.826ZM81.878,66.06L59.486,66.06L46.707,78.839L69.099,78.839L81.878,66.06ZM42.023,51.772L42.023,73.977L54.678,61.322L54.678,39.117L42.023,51.772ZM101.647,46.29L79.256,46.29L66.236,59.31L88.628,59.31L101.647,46.29ZM61.428,32.367L61.428,54.572L74.448,41.553L74.448,19.348L61.428,32.367ZM108.427,39.54C109.396,38.409 110.234,37.165 110.914,35.839C111.439,34.817 111.871,33.747 112.203,32.648C112.549,31.505 112.787,30.329 112.915,29.142C113.137,27.08 113.024,24.983 112.582,22.957C112.2,21.21 111.573,19.517 110.722,17.944C110.229,17.034 109.662,16.164 109.029,15.346C107.785,13.74 106.287,12.33 104.606,11.188C103.211,10.24 101.69,9.479 100.095,8.93C98.748,8.465 97.349,8.152 95.932,7.996C95.513,7.95 95.092,7.917 94.671,7.898C94.441,7.888 94.211,7.883 93.981,7.88C93.905,7.88 93.828,7.88 93.751,7.88C93.598,7.881 93.445,7.882 93.292,7.887C92.947,7.896 92.602,7.915 92.259,7.942C91.263,8.023 90.274,8.181 89.304,8.415C88.25,8.669 87.219,9.012 86.223,9.441C85.213,9.877 84.24,10.4 83.32,11.004C82.632,11.456 81.973,11.953 81.349,12.49C81.298,12.534 81.248,12.578 81.198,12.622L81.198,34.803L93.92,22.08C94.153,21.902 94.364,21.691 94.619,21.544C95.307,21.147 95.539,21.193 96.306,21.092C96.597,21.13 96.888,21.168 97.18,21.207C97.895,21.503 98.131,21.519 98.693,22.08C98.9,22.288 99.082,22.525 99.229,22.779C99.525,23.292 99.681,23.874 99.681,24.467C99.681,24.761 99.642,25.057 99.566,25.34C99.361,26.108 99.164,26.239 98.693,26.853L86.006,39.54L108.427,39.54Z"/>
            </clipPath>
            <g clip-path="url(#_clip1)">
                <rect x="-5" y="-4.12" width="130.026" height="125.12" style="fill:white;"/>
            </g>
        </g>
    </g>
</svg>
