<?xml version="1.0" encoding="UTF-8" standalone="no"?>
<!DOCTYPE svg PUBLIC "-//W3C//DTD SVG 1.1//EN" "http://www.w3.org/Graphics/SVG/1.1/DTD/svg11.dtd">
<svg width="100%" height="100%" viewBox="0 0 922 922" version="1.1" xmlns="http://www.w3.org/2000/svg" xmlns:xlink="http://www.w3.org/1999/xlink" xml:space="preserve" xmlns:serif="http://www.serif.com/" style="fill-rule:evenodd;clip-rule:evenodd;stroke-linejoin:round;stroke-miterlimit:1.41421;">
    <g transform="matrix(1,0,0,1,-13435.9,-3572.8)">
        <g transform="matrix(2.52379,0,0,2.11424,-16104.4,-43799.3)">
            <g>
                <g transform="matrix(0.396229,0,0,0.472983,7188.22,11906.2)">
                    <path d="M11860.1,22199.6C11863.3,22199.6 11866.5,22199.6 11869.7,22199.7C11876.1,22199.8 11882.5,22200.1 11888.9,22200.5C11906.3,22201.6 11923.7,22203.7 11940.8,22206.8C11958.9,22210 11976.7,22214.3 11994.2,22219.7C12012,22225.1 12029.4,22231.6 12046.3,22239.1C12069.6,22249.5 12092.1,22261.9 12113.4,22276C12135.1,22290.4 12155.6,22306.6 12174.6,22324.5C12193.8,22342.5 12211.4,22362.1 12227.2,22383C12243,22403.9 12257,22426.1 12269,22449.4C12279,22468.9 12287.7,22489.1 12294.9,22509.9C12301.9,22530.3 12307.5,22551.2 12311.6,22572.4C12314.5,22587.1 12316.6,22601.9 12318,22616.8C12319.4,22631.3 12320,22645.8 12320,22660.3C12320,22681.3 12318.6,22702.4 12315.8,22723.2C12312.6,22746.2 12307.7,22768.9 12301.2,22791.1C12294.3,22814.3 12285.6,22836.9 12275.2,22858.7C12263.4,22883.3 12249.4,22906.9 12233.4,22929.1C12217.2,22951.6 12199,22972.6 12179.1,22991.8C12158.4,23011.8 12135.8,23029.9 12111.6,23045.7C12087.9,23061.3 12062.8,23074.6 12036.6,23085.6C12022.1,23091.6 12007.3,23096.9 11992.2,23101.5C11977.4,23105.9 11962.4,23109.6 11947.2,23112.6C11932.7,23115.4 11918.2,23117.5 11903.5,23118.9C11889.1,23120.2 11874.6,23120.9 11860.1,23121C11845.6,23121 11831.1,23120.3 11816.6,23119C11801.9,23117.7 11787.3,23115.6 11772.9,23112.9C11757.7,23110 11742.6,23106.3 11727.8,23101.9C11712.7,23097.4 11697.9,23092.1 11683.3,23086.1C11657.1,23075.2 11631.9,23061.9 11608.2,23046.5C11584,23030.7 11561.4,23012.7 11540.5,22992.7C11520.6,22973.6 11502.3,22952.7 11486.1,22930.3C11470.1,22908.1 11456,22884.6 11444.1,22859.9C11433.6,22838.2 11424.8,22815.6 11417.9,22792.5C11411.3,22770.3 11406.3,22747.6 11403.1,22724.7C11400.1,22703.3 11398.6,22681.8 11398.6,22660.3C11398.6,22646 11399.3,22631.7 11400.6,22617.6C11401.9,22602.9 11404,22588.3 11406.8,22573.8C11410.8,22552.6 11416.3,22531.7 11423.3,22511.2C11430.4,22490.4 11439,22470.2 11449.1,22450.6C11461,22427.3 11474.9,22405.1 11490.6,22384.1C11506.4,22363.1 11524,22343.5 11543,22325.4C11562,22307.5 11582.4,22291.2 11604.1,22276.7C11625.4,22262.6 11647.8,22250.2 11671.1,22239.7C11688,22232.1 11705.4,22225.6 11723.1,22220.1C11740.6,22214.7 11758.4,22210.3 11776.4,22207C11793.6,22203.9 11810.9,22201.8 11828.3,22200.6C11834.7,22200.2 11841.1,22199.9 11847.5,22199.7C11850.7,22199.6 11853.9,22199.6 11857.1,22199.6C11858.1,22199.6 11859.1,22199.6 11860.1,22199.6ZM11858.6,22232.9C11856.8,22232.9 11855,22232.9 11853.1,22232.9C11849.5,22233 11845.8,22233.1 11842.1,22233.2C11840.1,22233.3 11838,22233.4 11836,22233.5C11830.5,22233.8 11825.1,22234.2 11819.7,22234.7C11809.4,22235.7 11799.2,22237 11789,22238.7C11785,22239.3 11781.1,22240 11777.1,22240.8C11775.6,22241.1 11774.1,22241.4 11772.6,22241.7C11769.3,22242.4 11766.1,22243.1 11762.9,22243.9C11759.2,22244.7 11755.6,22245.6 11751.9,22246.5C11747,22247.8 11742.2,22249.2 11737.3,22250.6C11726.9,22253.7 11716.5,22257.2 11706.3,22261.1C11701.9,22262.8 11697.5,22264.6 11693.1,22266.5C11690.5,22267.6 11687.9,22268.7 11685.3,22269.9C11680.6,22272 11675.9,22274.2 11671.2,22276.5C11667.9,22278.1 11664.7,22279.8 11661.4,22281.5C11659.7,22282.4 11658,22283.3 11656.3,22284.2C11651.4,22286.8 11646.5,22289.6 11641.7,22292.5C11635.1,22296.4 11628.5,22300.5 11622.1,22304.8C11617.8,22307.7 11613.6,22310.6 11609.4,22313.6C11608.6,22314.3 11607.7,22314.9 11606.8,22315.6C11606,22316.2 11605.1,22316.8 11604.3,22317.4C11602.2,22319 11600.1,22320.5 11598.1,22322.1C11595.1,22324.5 11592.1,22326.9 11589.1,22329.3C11582,22335.1 11575,22341.2 11568.3,22347.5C11560.1,22355 11552.3,22362.9 11544.8,22371.1C11541.2,22375 11537.6,22379 11534.1,22383.1C11530,22388 11525.9,22393 11522,22398C11517.8,22403.4 11513.7,22409 11509.7,22414.6C11506.4,22419.3 11503.2,22424.1 11500,22428.9C11499.2,22430.2 11498.4,22431.5 11497.6,22432.8C11495.9,22435.5 11494.2,22438.2 11492.5,22441C11489.9,22445.4 11487.3,22449.9 11484.8,22454.4C11481.1,22461.2 11477.5,22468.1 11474.1,22475.1C11466.8,22490.3 11460.3,22506 11454.9,22522C11452.9,22527.8 11451,22533.7 11449.3,22539.5C11446.6,22548.6 11444.2,22557.8 11442.2,22567C11440.9,22572.9 11439.7,22578.7 11438.6,22584.6C11437.5,22591.2 11436.4,22597.9 11435.6,22604.5C11434.9,22609.9 11434.3,22615.2 11433.8,22620.6C11433.4,22625.1 11433,22629.6 11432.8,22634.2C11432.3,22641.7 11432,22649.3 11432,22656.8C11431.9,22671.9 11432.5,22687 11434,22702C11434.5,22707.8 11435.2,22713.6 11436,22719.4C11437.5,22729.9 11439.4,22740.5 11441.6,22750.9C11443.9,22761.7 11446.7,22772.4 11449.8,22782.9C11451.2,22787.3 11452.6,22791.7 11454,22796C11455.3,22799.7 11456.6,22803.4 11457.9,22807.1C11459.9,22812.6 11462.1,22818.1 11464.3,22823.5C11465.5,22826.3 11466.7,22829.1 11467.9,22831.9C11469.8,22836.3 11471.8,22840.6 11473.8,22844.9C11477.3,22852.1 11481,22859.2 11484.8,22866.1C11490.9,22877.2 11497.5,22888.1 11504.6,22898.6C11509.4,22905.7 11514.4,22912.6 11519.6,22919.5C11521.4,22921.8 11523.3,22924.2 11525.1,22926.5C11527.5,22929.5 11530,22932.5 11532.5,22935.5C11535.5,22939.1 11538.6,22942.6 11541.8,22946.1C11548.8,22953.9 11556.1,22961.4 11563.6,22968.7C11573.7,22978.3 11584.2,22987.4 11595.1,22996.1C11599.8,22999.8 11604.6,23003.4 11609.4,23006.9C11614.6,23010.7 11619.9,23014.3 11625.3,23017.8C11628.7,23020.1 11632.2,23022.3 11635.6,23024.4C11636.7,23025.1 11637.8,23025.7 11638.9,23026.4C11642.1,23028.3 11645.2,23030.1 11648.4,23032C11651,23033.5 11653.7,23034.9 11656.3,23036.4C11658.4,23037.5 11660.5,23038.6 11662.6,23039.7C11667.5,23042.3 11672.6,23044.8 11677.7,23047.2C11683.5,23049.9 11689.5,23052.6 11695.5,23055C11701.9,23057.7 11708.4,23060.2 11714.9,23062.6C11718.4,23063.8 11721.9,23065 11725.4,23066.2C11729.2,23067.4 11732.9,23068.6 11736.7,23069.8C11742.4,23071.5 11748.1,23073 11753.9,23074.5C11756.9,23075.3 11759.9,23076 11762.9,23076.7C11766.1,23077.4 11769.3,23078.1 11772.6,23078.8C11777.3,23079.8 11782.2,23080.7 11787,23081.5C11794.7,23082.8 11802.5,23083.9 11810.3,23084.8C11816.3,23085.5 11822.4,23086.1 11828.5,23086.5C11830.1,23086.6 11831.6,23086.8 11833.2,23086.8C11837.3,23087.1 11841.4,23087.3 11845.5,23087.4C11850.4,23087.6 11855.2,23087.6 11860,23087.6C11861,23087.6 11861.9,23087.6 11862.8,23087.6C11865.8,23087.6 11868.8,23087.5 11871.7,23087.5C11874,23087.4 11876.3,23087.3 11878.6,23087.2C11879.7,23087.2 11880.9,23087.1 11882,23087C11884.9,23086.9 11887.9,23086.7 11890.9,23086.5C11894.5,23086.2 11898.1,23085.9 11901.7,23085.6C11903,23085.4 11904.4,23085.3 11905.7,23085.1C11914.2,23084.2 11922.6,23083.1 11931,23081.6C11937.2,23080.6 11943.3,23079.4 11949.3,23078.1C11951.3,23077.7 11953.2,23077.3 11955.2,23076.8C11963.5,23074.9 11971.8,23072.7 11980.1,23070.3C11994.7,23066 12009.1,23060.9 12023.2,23055C12037.6,23049.1 12051.6,23042.3 12065.2,23034.8C12069.7,23032.3 12074.2,23029.7 12078.6,23027.1C12079.2,23026.8 12079.7,23026.4 12080.3,23026.1C12083.2,23024.3 12086.1,23022.5 12089,23020.6C12095.4,23016.6 12101.6,23012.4 12107.7,23008C12112.7,23004.4 12117.7,23000.7 12122.6,22996.8C12129.5,22991.4 12136.2,22985.8 12142.8,22980C12147.1,22976.2 12151.4,22972.2 12155.5,22968.2C12157.1,22966.7 12158.6,22965.2 12160.1,22963.7C12163.3,22960.6 12166.4,22957.4 12169.5,22954.1C12175.5,22947.8 12181.4,22941.2 12187,22934.5C12191.3,22929.4 12195.4,22924.2 12199.5,22918.9C12200.9,22917.1 12202.3,22915.2 12203.7,22913.3C12205.6,22910.7 12207.5,22908.1 12209.3,22905.5C12210.7,22903.5 12212,22901.6 12213.3,22899.6C12215.3,22896.8 12217.2,22893.9 12219,22891C12220.5,22888.7 12222,22886.3 12223.5,22884C12228.4,22875.9 12233.1,22867.7 12237.5,22859.3C12239.7,22855.3 12241.7,22851.3 12243.7,22847.2C12246.5,22841.5 12249.1,22835.8 12251.6,22830.1C12253.2,22826.3 12254.8,22822.5 12256.3,22818.7C12258.1,22814.3 12259.8,22809.8 12261.4,22805.3C12262.8,22801.6 12264,22797.9 12265.3,22794.2C12266.9,22789.2 12268.5,22784.2 12269.9,22779.1C12270.6,22776.8 12271.3,22774.5 12271.9,22772.2C12272.9,22768.3 12273.9,22764.5 12274.8,22760.6C12275.7,22757 12276.5,22753.3 12277.3,22749.6C12279.1,22741.1 12280.7,22732.6 12282,22724C12282.9,22718 12283.6,22712 12284.3,22706C12285.8,22691.3 12286.6,22676.5 12286.7,22661.6C12286.8,22637.6 12284.9,22613.6 12280.9,22589.9C12278.1,22573.1 12274.3,22556.5 12269.6,22540.2C12268,22534.9 12266.4,22529.7 12264.7,22524.5C12262.6,22518.5 12260.5,22512.6 12258.2,22506.7C12254.9,22498 12251.2,22489.4 12247.3,22480.9C12244.1,22473.9 12240.6,22466.9 12236.9,22460.1C12221.8,22431.7 12203.5,22405 12182.4,22380.7C12178.5,22376.1 12174.5,22371.7 12170.4,22367.3C12167,22363.8 12163.6,22360.2 12160.1,22356.8C12156.9,22353.6 12153.7,22350.5 12150.4,22347.5C12144.4,22341.9 12138.3,22336.5 12132.1,22331.3C12130.3,22329.8 12128.4,22328.3 12126.6,22326.9C12124.6,22325.3 12122.6,22323.7 12120.6,22322.1C12117,22319.4 12113.4,22316.7 12109.8,22314C12095.3,22303.6 12080.3,22294 12064.6,22285.4C12059.5,22282.6 12054.4,22279.9 12049.2,22277.3C12047.8,22276.7 12046.5,22276 12045.1,22275.3C12041,22273.4 12036.9,22271.4 12032.7,22269.6C12030,22268.4 12027.2,22267.2 12024.4,22266C12017.8,22263.2 12011.1,22260.6 12004.4,22258.2C11993,22254.1 11981.6,22250.5 11969.9,22247.4C11966.5,22246.5 11963.1,22245.6 11959.7,22244.8C11953.7,22243.3 11947.6,22242 11941.5,22240.8C11935.2,22239.6 11928.8,22238.5 11922.4,22237.5C11919.8,22237.1 11917.1,22236.8 11914.4,22236.4C11908.4,22235.6 11902.3,22235 11896.3,22234.5C11890.9,22234 11885.4,22233.7 11880,22233.4C11878.1,22233.3 11876.3,22233.2 11874.5,22233.2C11871.5,22233.1 11868.5,22233 11865.5,22232.9C11863.2,22232.9 11860.9,22232.9 11858.6,22232.9Z" style="fill:white;fill-rule:nonzero;"/>
                </g>
                <g transform="matrix(0.433659,0,0,0.516467,7901.16,13484.4)">
                    <g>
                        <path d="M8941.65,17936.5L9012.36,17865.7L9012.36,17732L9247.12,17497.2L9247.12,17497C9250.15,17494 9253.18,17491 9256.2,17488C9256.54,17487.7 9256.87,17487.3 9257.22,17487C9258.05,17486.2 9258.9,17485.4 9259.76,17484.7C9261.73,17482.9 9263.76,17481.2 9265.85,17479.6C9266.95,17478.7 9268.06,17477.9 9269.19,17477.1C9271.11,17475.7 9273.08,17474.4 9275.09,17473.1C9275.58,17472.8 9276.07,17472.5 9276.56,17472.2C9278.57,17471 9280.63,17469.9 9282.72,17468.8C9285.88,17467.2 9289.12,17465.7 9292.43,17464.4C9297.36,17462.5 9302.43,17460.9 9307.59,17459.7C9312.68,17458.5 9317.87,17457.6 9323.09,17457.2C9324.6,17457.1 9326.11,17457 9327.62,17456.9C9328.94,17456.8 9330.25,17456.8 9331.57,17456.8C9332.2,17456.8 9332.84,17456.8 9333.48,17456.8C9334.36,17456.8 9335.23,17456.8 9336.11,17456.8C9338.72,17456.9 9341.33,17457.1 9343.92,17457.4C9349.14,17457.9 9354.31,17458.8 9359.39,17460.1C9362.57,17460.9 9365.72,17461.9 9368.82,17463C9370.29,17463.5 9371.74,17464 9373.18,17464.6C9380.57,17467.6 9387.62,17471.3 9394.19,17475.8C9406.43,17484.2 9416.96,17495.1 9424.9,17507.6C9428.13,17512.7 9430.93,17518.1 9433.27,17523.7C9435.06,17527.9 9436.58,17532.3 9437.82,17536.8C9440.84,17547.7 9442.14,17559.2 9441.67,17570.5C9441.36,17577.9 9440.29,17585.3 9438.49,17592.5C9437.15,17597.9 9435.4,17603.1 9433.27,17608.2C9431.24,17613 9428.84,17617.8 9426.13,17622.3C9424.38,17625.2 9422.49,17628 9420.48,17630.7C9418.15,17633.9 9415.64,17636.9 9412.99,17639.8C9412.05,17640.8 9411.09,17641.8 9410.12,17642.8L9409.85,17643C9408.81,17644.1 9407.75,17645.1 9406.67,17646.1C9405.47,17647.2 9404.24,17648.3 9402.99,17649.3L9403.54,17648.9L9166.4,17886L9031.86,17886L8981.43,17936.5L8941.65,17936.5ZM9201.44,17809.7L9108.14,17809.7L9061.02,17856.9L9154.32,17856.9L9201.44,17809.7ZM9041.52,17744.1L9041.52,17836.6L9088.62,17789.5L9088.62,17697L9041.52,17744.1ZM9282.81,17728.4L9189.51,17728.4L9136.27,17781.6L9229.57,17781.6L9282.81,17728.4ZM9116.75,17668.8L9116.75,17761.4L9169.48,17708.6L9169.48,17616.1L9116.75,17668.8ZM9365.18,17646L9271.89,17646L9217.64,17700.2L9310.93,17700.2L9365.18,17646ZM9197.6,17588L9197.6,17680.5L9251.85,17626.3L9251.85,17533.7L9197.6,17588ZM9393.43,17617.9C9397.47,17613.2 9400.96,17608 9403.8,17602.4C9405.98,17598.2 9407.78,17593.7 9409.17,17589.2C9410.61,17584.4 9411.6,17579.5 9412.13,17574.5C9413.06,17566 9412.59,17557.2 9410.74,17548.8C9409.15,17541.5 9406.54,17534.4 9402.99,17527.9C9400.94,17524.1 9398.58,17520.5 9395.94,17517.1C9390.76,17510.4 9384.51,17504.5 9377.51,17499.7C9371.7,17495.8 9365.36,17492.6 9358.72,17490.3C9353.1,17488.4 9347.27,17487.1 9341.37,17486.4C9339.62,17486.2 9337.87,17486.1 9336.11,17486C9335.16,17486 9334.2,17486 9333.24,17486C9332.92,17486 9332.6,17486 9332.28,17486C9331.65,17486 9331.01,17486 9330.37,17486C9328.93,17486 9327.5,17486.1 9326.06,17486.2C9321.92,17486.5 9317.8,17487.2 9313.75,17488.2C9309.36,17489.2 9305.06,17490.7 9300.92,17492.5C9296.71,17494.3 9292.65,17496.5 9288.82,17499C9285.95,17500.9 9283.21,17502.9 9280.61,17505.2C9280.4,17505.3 9280.18,17505.5 9279.98,17505.7L9279.98,17598.1L9332.99,17545.1C9333.96,17544.4 9334.84,17543.5 9335.9,17542.9C9338.76,17541.2 9339.73,17541.4 9342.93,17541C9344.14,17541.2 9345.35,17541.3 9346.57,17541.5C9349.55,17542.7 9350.53,17542.8 9352.87,17545.1C9353.74,17546 9354.5,17547 9355.11,17548C9356.34,17550.2 9356.99,17552.6 9356.99,17555.1C9356.99,17556.3 9356.83,17557.5 9356.51,17558.7C9355.66,17561.9 9354.84,17562.4 9352.87,17565L9300.01,17617.9L9393.43,17617.9Z" style="fill:white;"/>
                    </g>
                </g>
            </g>
        </g>
    </g>
</svg>
