<?xml version="1.0" encoding="UTF-8" standalone="no"?>
<!DOCTYPE svg PUBLIC "-//W3C//DTD SVG 1.1//EN" "http://www.w3.org/Graphics/SVG/1.1/DTD/svg11.dtd">
<svg width="100%" height="100%" viewBox="0 0 1715 1645" version="1.1" xmlns="http://www.w3.org/2000/svg" xmlns:xlink="http://www.w3.org/1999/xlink" xml:space="preserve" xmlns:serif="http://www.serif.com/" style="fill-rule:evenodd;clip-rule:evenodd;stroke-linejoin:round;stroke-miterlimit:1.41421;">
    <g transform="matrix(1,0,0,1,-417.7,-460.348)">
        <g transform="matrix(1,0,0,0.772727,0,7.60868)">
            <g transform="matrix(4.43683,0,0,3.42846,-2939.6,-3995.53)">
                <g>
                    <g id="Bottom">
                        <g transform="matrix(0.772727,0,0,1.29412,-6152.77,-21254.8)">
                            <path d="M9282.81,17728.4L9189.51,17728.4L9136.27,17781.6L9229.57,17781.6L9282.81,17728.4Z" style="fill:rgb(225,222,217);"/>
                        </g>
                        <g transform="matrix(0.772727,0,0,1.29412,-6152.77,-21254.8)">
                            <path d="M9365.18,17646L9271.89,17646L9217.64,17700.2L9310.93,17700.2L9365.18,17646Z" style="fill:rgb(225,222,217);"/>
                        </g>
                        <g transform="matrix(0.772727,0,0,1.29412,-6152.77,-21254.8)">
                            <path d="M9388.75,17509C9391.36,17511.5 9393.75,17514.2 9395.94,17517.1C9398.58,17520.5 9400.94,17524.1 9402.99,17527.9C9406.54,17534.4 9409.15,17541.5 9410.74,17548.8C9412.59,17557.2 9413.06,17566 9412.13,17574.5C9411.6,17579.5 9410.61,17584.4 9409.17,17589.2C9407.78,17593.7 9405.98,17598.2 9403.8,17602.4C9400.96,17608 9397.47,17613.2 9393.43,17617.9L9300.01,17617.9L9352.87,17565C9354.84,17562.4 9355.66,17561.9 9356.51,17558.7C9356.83,17557.5 9356.99,17556.3 9356.99,17555.1C9356.99,17552.6 9356.34,17550.2 9355.11,17548C9354.5,17547 9353.74,17546 9352.87,17545.1L9352.77,17545L9388.75,17509Z" style="fill:rgb(225,222,217);"/>
                        </g>
                        <g transform="matrix(0.772727,0,0,1.29412,-6152.77,-21254.8)">
                            <path d="M9201.44,17809.7L9108.14,17809.7L9061.02,17856.9L9154.32,17856.9L9201.44,17809.7Z" style="fill:rgb(225,222,217);"/>
                        </g>
                    </g>
                    <g id="Top">
                        <g transform="matrix(0.772727,0,0,1.29412,-6152.77,-21254.8)">
                            <path d="M9041.52,17744.1L9041.52,17836.6L9088.62,17789.5L9088.62,17697L9041.52,17744.1Z" style="fill:white;"/>
                        </g>
                        <g transform="matrix(0.772727,0,0,1.29412,-6152.77,-21254.8)">
                            <path d="M9197.6,17588L9197.6,17680.5L9251.85,17626.3L9251.85,17533.7L9197.6,17588Z" style="fill:white;"/>
                        </g>
                        <g transform="matrix(0.772727,0,0,1.29412,-6152.77,-21254.8)">
                            <path d="M9116.75,17668.8L9116.75,17761.4L9169.48,17708.6L9169.48,17616.1L9116.75,17668.8Z" style="fill:white;"/>
                        </g>
                        <g transform="matrix(0.772727,0,0,1.29412,-6152.77,-21254.8)">
                            <path d="M9352.77,17545C9350.5,17542.8 9349.51,17542.7 9346.57,17541.5C9345.35,17541.3 9344.14,17541.2 9342.93,17541C9339.73,17541.4 9338.76,17541.2 9335.9,17542.9C9334.84,17543.5 9333.96,17544.4 9332.99,17545.1L9279.98,17598.1L9279.98,17505.7C9280.18,17505.5 9280.4,17505.3 9280.61,17505.2C9283.21,17502.9 9285.95,17500.9 9288.82,17499C9292.65,17496.5 9296.71,17494.3 9300.92,17492.5C9305.06,17490.7 9309.36,17489.2 9313.75,17488.2C9317.8,17487.2 9321.92,17486.5 9326.06,17486.2C9327.5,17486.1 9328.93,17486 9330.37,17486C9331.01,17486 9331.65,17486 9332.28,17486C9332.6,17486 9332.92,17486 9333.24,17486C9334.2,17486 9335.16,17486 9336.11,17486C9337.87,17486.1 9339.62,17486.2 9341.37,17486.4C9347.27,17487.1 9353.1,17488.4 9358.72,17490.3C9365.36,17492.6 9371.7,17495.8 9377.51,17499.7C9381.55,17502.5 9385.33,17505.6 9388.75,17509L9352.77,17545Z" style="fill:white;"/>
                        </g>
                    </g>
                </g>
                <g transform="matrix(0.772727,0,0,1.29412,-6152.77,-21254.8)">
                    <path d="M8941.65,17936.5L9012.36,17865.7L9012.36,17732L9247.12,17497.2L9247.12,17497C9250.15,17494 9253.18,17491 9256.2,17488C9256.54,17487.7 9256.87,17487.3 9257.22,17487C9258.05,17486.2 9258.9,17485.4 9259.76,17484.7C9261.73,17482.9 9263.76,17481.2 9265.85,17479.6C9266.95,17478.7 9268.06,17477.9 9269.19,17477.1C9271.11,17475.7 9273.08,17474.4 9275.09,17473.1C9275.58,17472.8 9276.07,17472.5 9276.56,17472.2C9278.57,17471 9280.63,17469.9 9282.72,17468.8C9285.88,17467.2 9289.12,17465.7 9292.43,17464.4C9297.36,17462.5 9302.43,17460.9 9307.59,17459.7C9312.68,17458.5 9317.87,17457.6 9323.09,17457.2C9324.6,17457.1 9326.11,17457 9327.62,17456.9C9328.94,17456.8 9330.25,17456.8 9331.57,17456.8C9332.2,17456.8 9332.84,17456.8 9333.48,17456.8C9334.36,17456.8 9335.23,17456.8 9336.11,17456.8C9338.72,17456.9 9341.33,17457.1 9343.92,17457.4C9349.14,17457.9 9354.31,17458.8 9359.39,17460.1C9362.57,17460.9 9365.72,17461.9 9368.82,17463C9370.29,17463.5 9371.74,17464 9373.18,17464.6C9380.57,17467.6 9387.62,17471.3 9394.19,17475.8C9406.43,17484.2 9416.96,17495.1 9424.9,17507.6C9428.13,17512.7 9430.93,17518.1 9433.27,17523.7C9435.06,17527.9 9436.58,17532.3 9437.82,17536.8C9440.84,17547.7 9442.14,17559.2 9441.67,17570.5C9441.36,17577.9 9440.29,17585.3 9438.49,17592.5C9437.15,17597.9 9435.4,17603.1 9433.27,17608.2C9431.24,17613 9428.84,17617.8 9426.13,17622.3C9424.38,17625.2 9422.49,17628 9420.48,17630.7C9418.15,17633.9 9415.64,17636.9 9412.99,17639.8C9412.05,17640.8 9411.09,17641.8 9410.12,17642.8L9409.85,17643C9408.81,17644.1 9407.75,17645.1 9406.67,17646.1C9405.47,17647.2 9404.24,17648.3 9402.99,17649.3L9403.54,17648.9L9166.4,17886L9031.86,17886L8981.43,17936.5L8941.65,17936.5ZM9201.44,17809.7L9108.14,17809.7L9061.02,17856.9L9154.32,17856.9L9201.44,17809.7ZM9041.52,17744.1L9041.52,17836.6L9088.62,17789.5L9088.62,17697L9041.52,17744.1ZM9282.81,17728.4L9189.51,17728.4L9136.27,17781.6L9229.57,17781.6L9282.81,17728.4ZM9116.75,17668.8L9116.75,17761.4L9169.48,17708.6L9169.48,17616.1L9116.75,17668.8ZM9365.18,17646L9271.89,17646L9217.64,17700.2L9310.93,17700.2L9365.18,17646ZM9197.6,17588L9197.6,17680.5L9251.85,17626.3L9251.85,17533.7L9197.6,17588ZM9393.43,17617.9C9397.47,17613.2 9400.96,17608 9403.8,17602.4C9405.98,17598.2 9407.78,17593.7 9409.17,17589.2C9410.61,17584.4 9411.6,17579.5 9412.13,17574.5C9413.06,17566 9412.59,17557.2 9410.74,17548.8C9409.15,17541.5 9406.54,17534.4 9402.99,17527.9C9400.94,17524.1 9398.58,17520.5 9395.94,17517.1C9390.76,17510.4 9384.51,17504.5 9377.51,17499.7C9371.7,17495.8 9365.36,17492.6 9358.72,17490.3C9353.1,17488.4 9347.27,17487.1 9341.37,17486.4C9339.62,17486.2 9337.87,17486.1 9336.11,17486C9335.16,17486 9334.2,17486 9333.24,17486C9332.92,17486 9332.6,17486 9332.28,17486C9331.65,17486 9331.01,17486 9330.37,17486C9328.93,17486 9327.5,17486.1 9326.06,17486.2C9321.92,17486.5 9317.8,17487.2 9313.75,17488.2C9309.36,17489.2 9305.06,17490.7 9300.92,17492.5C9296.71,17494.3 9292.65,17496.5 9288.82,17499C9285.95,17500.9 9283.21,17502.9 9280.61,17505.2C9280.4,17505.3 9280.18,17505.5 9279.98,17505.7L9279.98,17598.1L9332.99,17545.1C9333.96,17544.4 9334.84,17543.5 9335.9,17542.9C9338.76,17541.2 9339.73,17541.4 9342.93,17541C9344.14,17541.2 9345.35,17541.3 9346.57,17541.5C9349.55,17542.7 9350.53,17542.8 9352.87,17545.1C9353.74,17546 9354.5,17547 9355.11,17548C9356.34,17550.2 9356.99,17552.6 9356.99,17555.1C9356.99,17556.3 9356.83,17557.5 9356.51,17558.7C9355.66,17561.9 9354.84,17562.4 9352.87,17565L9300.01,17617.9L9393.43,17617.9Z" style="fill:rgb(33,33,33);"/>
                </g>
            </g>
        </g>
    </g>
</svg>
