<?xml version="1.0" encoding="UTF-8"?>
<svg width="18px" height="17px" viewBox="0 0 18 17" version="1.1" xmlns="http://www.w3.org/2000/svg" xmlns:xlink="http://www.w3.org/1999/xlink">
    <!-- Generator: Sketch 41.2 (35397) - http://www.bohemiancoding.com/sketch -->
    <title>bttn-quill</title>
    <desc>Created with Sketch.</desc>
    <defs></defs>
    <g id="Symbols" stroke="none" stroke-width="1" fill="none" fill-rule="evenodd">
        <g id="CTA" transform="translate(-11.000000, -7.000000)" fill="#FFFFFF">
            <g id="bttn-quill">
                <path d="M14.6239484,17.2667546 L16.5367334,15.3612641 L16.5367334,18.711014 L14.6239484,20.6165045 L14.6239484,17.2667546 Z M17.1985736,14.7019478 L18.8609481,13.0459128 L18.8609481,16.3956627 L17.1985736,18.0516977 L17.1985736,14.7019478 Z M19.5227883,12.3865966 L21.5508097,10.3663091 L21.5508097,13.716059 L19.5227883,15.7363465 L19.5227883,12.3865966 Z M22.7814066,16.9523605 L21.1187859,18.6085999 L17.7999034,18.6085999 L19.462483,16.9523605 L22.7814066,16.9523605 Z M20.1243232,16.2930443 L22.1449192,14.2801538 L25.4638018,14.2801538 L23.4432467,16.2930443 L20.1243232,16.2930443 Z M15.243698,21.1550571 L17.1380632,19.2679161 L20.4569868,19.2679161 L18.5626216,21.1550571 L15.243698,21.1550571 Z M22.2126088,9.70703371 L22.8549626,9.06712955 C23.935945,7.99035126 25.6948079,7.99035126 26.7757493,9.06712955 C26.7960151,9.08731813 26.8152554,9.10824231 26.8348238,9.12892129 C27.32063,9.64299425 27.5877783,10.3108927 27.5877783,11.0200673 C27.5877783,11.7577675 27.2994206,12.4513308 26.7757493,12.9730051 C26.7729596,12.9757841 26.770129,12.978604 26.7674214,12.9815464 L26.1256419,13.6208376 L22.8067594,13.6208376 L25.2617176,11.1752414 C25.4053426,11.0321641 25.419783,10.8095586 25.3058594,10.6499708 C25.2927317,10.6315804 25.2782502,10.613803 25.2617176,10.5972925 C25.1014368,10.4377047 24.8417549,10.4377047 24.6815151,10.5972925 L22.2126088,13.0567427 L22.2126088,9.70703371 Z M27.3607515,8.48439911 C25.9572795,7.0861975 23.6735144,7.0861975 22.2699604,8.48439911 L13.9173511,16.8051147 C13.833498,16.888648 13.7912843,17.0020146 13.7966585,17.1158307 L13.7966585,21.4406396 L12.2700324,22.9614439 C12.2627301,22.9687183 12.2561252,22.9764014 12.2495204,22.9840436 L12.2493153,22.9838393 L11.5848495,23.6663683 L12.7057483,23.6721306 L12.8132312,23.571719 C12.8259896,23.5617065 12.8384609,23.5511218 12.8502348,23.5393928 L14.416408,21.9791922 L18.7356198,21.9791922 C18.857338,21.9791922 18.96679,21.9263505 19.0424793,21.8425311 L27.3608746,13.5558582 C27.3638283,13.5529157 27.366741,13.5499324 27.3695717,13.546949 C28.0439241,12.8706319 28.4151093,11.9737934 28.4151093,11.0200673 C28.4151093,10.0622136 28.0406422,9.16169707 27.3607515,8.48439911 L27.3607515,8.48439911 Z"></path>
            </g>
        </g>
    </g>
</svg>