<?xml version="1.0" encoding="UTF-8"?>
<svg width="33px" height="27px" viewBox="0 0 33 27" version="1.1" xmlns="http://www.w3.org/2000/svg" xmlns:xlink="http://www.w3.org/1999/xlink">
    <!-- Generator: Sketch 41.2 (35397) - http://www.bohemiancoding.com/sketch -->
    <title>reddit-alien-head-logo</title>
    <desc>Created with Sketch.</desc>
    <defs></defs>
    <g id="Symbols" stroke="none" stroke-width="1" fill="none" fill-rule="evenodd" opacity="0.5">
        <g id="Footer" transform="translate(-1106.000000, -280.000000)" fill="#FFFFFF">
            <g id="reddit-alien-head-logo">
                <g transform="translate(1106.000000, 280.000000)">
                    <g id="Capa_1">
                        <path d="M23.0182802,14.5560459 C23.1013643,14.7667449 23.139089,14.9843483 23.139089,15.2005412 C23.139089,15.6357481 22.9875166,16.0584824 22.7331742,16.4035595 C22.4816762,16.7445532 22.1253125,17.0092261 21.7060743,17.1257119 L21.7068228,17.1257119 C21.7033049,17.1271225 21.6997869,17.1271225 21.6980653,17.1284589 C21.6963438,17.1284589 21.6934994,17.1298695 21.6921521,17.1298695 C21.495819,17.1963904 21.2945458,17.227572 21.0948444,17.227572 C20.6267287,17.227572 20.1669964,17.0602304 19.7994799,16.7749925 C19.4348078,16.4909424 19.1587588,16.0827595 19.0721567,15.5986271 L19.0714082,15.5986271 C19.0714082,15.5972165 19.0714082,15.5955089 19.0707345,15.5935044 C19.0707345,15.5920938 19.0707345,15.5906832 19.0693124,15.5886787 L19.0707345,15.5886787 C19.0434889,15.4638778 19.0294918,15.3392254 19.0294918,15.2159093 C19.0294918,14.7966644 19.1734295,14.3940497 19.4110053,14.0613711 C19.6478326,13.7307712 19.981816,13.4681771 20.3726858,13.3329823 C20.374108,13.3329823 20.3755301,13.3322399 20.3755301,13.3322399 C20.3775511,13.3322399 20.3775511,13.3302353 20.3793475,13.3302353 C20.6004562,13.249163 20.8338403,13.2085526 21.0647544,13.2085526 C21.4853399,13.2085526 21.899638,13.3350611 22.2489657,13.5664735 C22.5941018,13.7940997 22.8742676,14.1278177 23.0146873,14.5422369 C23.0161095,14.5449838 23.0161095,14.5474338 23.0174568,14.5498838 C23.0174568,14.5526308 23.018879,14.5541156 23.0202263,14.5561201 L23.0182802,14.5561201 L23.0182802,14.5560459 Z M21.731299,19.7000552 C21.566478,19.5940376 21.3756838,19.5299667 21.1738117,19.5299667 C21.0110117,19.5299667 20.8419242,19.576071 20.6913996,19.6751099 L20.6913996,19.6751099 C19.2689389,20.5171633 17.5959532,20.9786519 15.9348688,20.9786519 C14.6886063,20.9786519 13.4499038,20.7177653 12.3276688,20.1709726 L12.3219053,20.1682256 L12.3162915,20.1661468 C12.1470543,20.0975472 11.9542392,19.9516615 11.743909,19.8127547 C11.6370223,19.7440808 11.5254201,19.6758523 11.4015423,19.6255904 C11.2793113,19.5739922 11.1435323,19.5379106 10.998397,19.5379106 C10.8782618,19.5379106 10.7519889,19.5645635 10.6273626,19.6206905 C10.6209255,19.6231404 10.6147877,19.6255162 10.6085003,19.6279662 L10.6091739,19.6279662 C10.4133648,19.702134 10.2603701,19.837997 10.1620165,19.998731 C10.0593214,20.1642908 10.0088721,20.3570232 10.0088721,20.5489389 C10.0088721,20.7222198 10.0501148,20.8954265 10.1354445,21.0527455 C10.2166574,21.2017493 10.341583,21.3320441 10.5050567,21.4193527 C12.1090302,22.4924474 13.9977353,22.9785844 15.8937009,22.9768768 C17.6031389,22.9768768 19.3229062,22.5843591 20.85405,21.8698535 L20.862059,21.8650278 L20.8697686,21.8608702 C21.0716407,21.7423057 21.3399801,21.6359911 21.5929002,21.4811221 C21.7179756,21.4021286 21.8402066,21.3106624 21.9449974,21.1918008 C22.0497883,21.0736817 22.1339952,20.9281673 22.1815253,20.7556288 L22.1815253,20.7548863 C22.2014356,20.678714 22.2108668,20.6045462 22.2108668,20.5303784 C22.2108668,20.3893927 22.1759115,20.2556085 22.1179772,20.1354106 C22.0330966,19.9544085 21.894099,19.8061471 21.731299,19.7000552 Z M10.4697273,17.1194014 C10.4724967,17.1194014 10.4761644,17.1204407 10.4793081,17.1221483 C10.6840245,17.1963161 10.8950284,17.2329917 11.1039364,17.2329917 C11.6251211,17.2329917 12.1316351,17.0212534 12.5150947,16.6761763 C12.8979555,16.3300598 13.1601571,15.8404335 13.1601571,15.2822817 C13.1601571,15.2677303 13.1601571,15.2531788 13.1594835,15.2358804 C13.1609056,15.2109351 13.1615793,15.1835398 13.1615793,15.1554763 C13.1615793,14.601779 12.9028956,14.1101481 12.5237025,13.7625468 C12.1430872,13.4146485 11.6377708,13.2019451 11.11464,13.2019451 C10.9748939,13.2019451 10.8325281,13.2182041 10.6933808,13.2504251 C10.691285,13.2504251 10.6897132,13.2510933 10.6876173,13.2510933 L10.6855215,13.2510933 C9.99300381,13.3949002 9.38514211,13.9046461 9.16081487,14.6058623 L9.16081487,14.6058623 L9.16081487,14.6066047 C9.16081487,14.6080153 9.16014122,14.6093517 9.16014122,14.6093517 C9.09569485,14.8013417 9.06567976,14.9994937 9.06567976,15.195567 C9.06567976,15.6252057 9.20886895,16.0438567 9.45572622,16.3881914 C9.70041282,16.7267351 10.0465968,16.9928929 10.4623171,17.1171741 C10.4653111,17.1173226 10.4667332,17.118065 10.4697273,17.1194014 Z M32.1882268,12.1084338 L32.1882268,12.111255 C32.1931669,12.1810425 32.1945142,12.2506816 32.1945142,12.3198752 C32.1945142,13.0954819 31.9436899,13.8413176 31.5252751,14.4740827 C31.1347046,15.0662373 30.5960797,15.5616545 29.9756431,15.8978226 C30.0154637,16.206521 30.0385177,16.5176695 30.0385177,16.8277786 C30.0377691,18.4978536 29.4572279,20.1394939 28.4462958,21.4552116 L28.4462958,21.4558798 L28.4441999,21.4558798 C26.5752554,23.9219039 23.7051841,25.3761573 20.8071187,26.1096688 L20.8063702,26.1096688 L20.8043492,26.1113764 C19.2589089,26.4835518 17.6652649,26.6736857 16.0720699,26.6736857 C13.6971353,26.6736857 11.324072,26.2488727 9.10961706,25.3681392 L9.10894341,25.3660604 L9.10684759,25.3660604 C6.81103008,24.4274181 4.62352138,22.9354498 3.28204898,20.7493924 C2.56033952,19.5830497 2.16415531,18.2146944 2.16415531,16.83988 C2.16415531,16.5288058 2.18533803,16.2172119 2.22725437,15.9091816 C1.62306035,15.5717515 1.09977982,15.0932614 0.711155523,14.5218203 C0.296333514,13.9081355 0.0333085157,13.1891754 7.48505977e-05,12.4291595 L7.48505977e-05,12.4261898 L7.48505977e-05,12.4234429 L7.48505977e-05,12.417355 C0.000748505971,11.3529467 0.466918024,10.3446653 1.1913221,9.60120536 C1.91565133,8.85796814 2.90510137,8.37220237 3.96640799,8.37220237 L4.01042014,8.37220237 C4.12172298,8.36470392 4.23399887,8.36039788 4.34634962,8.36039788 C4.87943557,8.36039788 5.41371913,8.44599897 5.92113133,8.63895407 L5.9239008,8.64103285 L5.92674512,8.64192376 C6.35990553,8.82285165 6.79029646,9.04112329 7.17390577,9.34343694 C7.29823261,9.27877211 7.43378705,9.20601489 7.58588346,9.14855154 C9.91104241,7.78286893 12.6136729,7.2560473 15.2474409,7.10407382 C15.2703452,5.80996055 15.4306751,4.45511727 16.0669801,3.26947164 C16.5969223,2.28435381 17.5167613,1.51743337 18.6119004,1.25164682 L18.6164662,1.24941955 L18.6223794,1.24875138 C19.0395218,1.16871844 19.4601073,1.13182014 19.8779234,1.13182014 C20.9908769,1.13182014 22.0905819,1.39322642 23.1197027,1.80126075 C23.5752434,1.11934747 24.2256951,0.587106176 24.9887221,0.28857887 L24.9960575,0.284421315 L25.0033928,0.281674359 C25.451224,0.143287167 25.9242797,0.0623633267 26.3990571,0.0623633267 C26.8999573,0.0623633267 27.4048245,0.153161361 27.8778055,0.362746684 L27.8778055,0.361039116 C27.8784791,0.362746684 27.8792276,0.362746684 27.8792276,0.362746684 C27.8827456,0.363934557 27.8855151,0.366013334 27.8879103,0.366013334 C28.5659819,0.625043866 29.1399362,1.10375664 29.5468989,1.69865823 C29.9542359,2.2961583 30.1939075,3.01185171 30.1939075,3.74766472 C30.1939075,3.88330496 30.1861979,4.01916792 30.1701799,4.15517937 L30.1687577,4.15792632 C30.1687577,4.1600051 30.1687577,4.16297478 30.1680092,4.16505356 C30.088443,5.11602005 29.6028123,5.95035227 28.9153096,6.54547659 C28.2236901,7.14297665 27.327953,7.50386729 26.4085631,7.50386729 C26.2611074,7.50386729 26.1123044,7.49570066 25.9641751,7.47610076 C25.0523451,7.4069814 24.2021172,6.96932449 23.577489,6.3182959 C22.9507649,5.6683067 22.5469459,4.79982314 22.5469459,3.8623687 C22.5469459,3.8170068 22.5511376,3.77053128 22.5524849,3.72554059 C21.6965683,3.34750005 20.7876575,3.0339016 19.8843605,3.03464402 C19.7536714,3.03464402 19.6230571,3.04177126 19.4923679,3.0549121 L19.4909458,3.0549121 C18.8146706,3.11957693 18.1858508,3.54238544 17.8812088,4.15050212 L17.8812088,4.1511703 L17.8812088,4.15324907 C17.418707,5.04667797 17.3264911,6.09104097 17.312494,7.12768279 C19.9052438,7.29539559 22.513338,7.91249556 24.8007723,9.21670575 L24.8042903,9.21670575 L24.8370748,9.23593444 C24.8804133,9.26139947 24.960728,9.3050538 25.0334079,9.34351118 C25.190669,9.21700272 25.3569122,9.08693064 25.5465836,8.97482513 C26.2399996,8.51675165 27.0616346,8.28897702 27.8836438,8.28897702 C28.2483159,8.28897702 28.6133623,8.33508134 28.9675553,8.42513695 L28.9689775,8.42513695 L28.9836482,8.42944299 C28.9888877,8.43018541 28.9927051,8.43189298 28.9969716,8.43189298 L28.9969716,8.43256116 C29.8340258,8.64377981 30.5912893,9.12056229 31.1614263,9.76349849 C31.7311891,10.4074741 32.1143493,11.2222064 32.189125,12.106652 L32.189125,12.1085081 L32.1882268,12.1085081 L32.1882268,12.1084338 Z M24.5511455,3.69228015 C24.5511455,3.72709968 24.551894,3.7628101 24.555412,3.79918871 L24.555412,3.80126749 L24.555412,3.80542504 C24.5721785,4.25221373 24.7848291,4.66804349 25.108034,4.97518287 C25.4328856,5.28254498 25.864025,5.47275313 26.3013022,5.4744607 L26.3072902,5.4744607 L26.3132034,5.4744607 C26.3446407,5.47691068 26.3768264,5.47691068 26.4075152,5.47691068 C26.8490589,5.47757886 27.2871594,5.2889298 27.6162026,4.9828298 C27.9459195,4.67517073 28.1632856,4.2567425 28.1807258,3.80616746 L28.1813995,3.80408869 L28.1813995,3.80134173 C28.1842438,3.76689342 28.185666,3.73430115 28.185666,3.69911042 C28.185666,3.2353203 27.9669525,2.79320886 27.6245859,2.46580139 C27.2836414,2.1386909 26.8245827,1.93601008 26.3719612,1.93719796 C26.2259276,1.93719796 26.0812414,1.95694634 25.9394744,2.00060067 L25.9346091,2.00097188 L25.9304175,2.00267945 C25.5573621,2.09882291 25.2076601,2.32696875 24.9564615,2.62995058 C24.7041402,2.93152181 24.5511455,3.30436541 24.5511455,3.69228015 Z M5.41259637,10.5852838 C5.06603811,10.4252179 4.70765345,10.3108852 4.35346043,10.31237 C4.29402905,10.31237 4.23392402,10.3158594 4.1745675,10.3222442 L4.16633393,10.3222442 L4.15810037,10.3232836 C3.64949056,10.3371669 3.13616517,10.5571461 2.75083429,10.9097216 C2.36520402,11.261035 2.11018803,11.7354417 2.09057718,12.258477 L2.09057718,12.2633027 L2.08967897,12.2676088 C2.08623584,12.3099268 2.08481368,12.352022 2.08481368,12.3925582 C2.08481368,12.7151399 2.18458953,13.0269565 2.35375187,13.3107839 C2.47897692,13.522151 2.64319913,13.7147349 2.82890346,13.882522 C3.42329206,12.5916011 4.35196341,11.4960111 5.41259637,10.5852838 Z M27.9990634,16.9000903 C27.9990634,15.7493385 27.5804989,14.5934639 26.9028016,13.6628397 C25.5515238,11.7979535 23.4555573,10.5816459 21.2750097,9.90351901 L21.2596654,9.89817358 C20.8411008,9.77084845 20.4184944,9.65807477 19.9922202,9.5615601 C18.7178888,9.27379789 17.4113716,9.13051072 16.1062018,9.13051072 C14.3536499,9.13051072 12.6011729,9.38775945 10.9231722,9.90106902 C8.74314854,10.5872883 6.64014616,11.7949839 5.29193721,13.6658837 L5.29193721,13.6672943 C4.60862611,14.601779 4.20847482,15.7615142 4.20847482,16.9163493 C4.20847482,17.3415336 4.26206785,17.7666436 4.37539165,18.1803203 L4.37681381,18.1810628 C4.62217407,19.1096824 5.10204125,19.9384465 5.7233012,20.6602277 C6.3441869,21.3837165 7.10594143,22.0008908 7.90714222,22.5043261 C8.08461299,22.613462 8.26275741,22.7174008 8.44509346,22.8188897 C10.7724979,24.1074348 13.4524487,24.6722684 16.1131629,24.6722684 C16.5631647,24.6722684 17.0158611,24.6563806 17.4629437,24.6244565 C20.1423705,24.4047743 22.8328752,23.6203327 25.0078839,22.0174467 L25.0086324,22.0157392 C25.7010004,21.5081462 26.3423203,20.8937932 26.8495828,20.1949528 C27.3589411,19.4957411 27.7319965,18.7140465 27.8976409,17.8650886 L27.8976409,17.8626386 L27.8983145,17.8618962 C27.966204,17.5448826 27.9990634,17.2230433 27.9990634,16.9000903 Z M30.1138922,12.3204691 C30.1132185,12.0411705 30.0489219,11.763134 29.9078285,11.5038065 L29.9043105,11.5005399 L29.9028884,11.4963823 C29.71419,11.111066 29.4179314,10.8200372 29.0609689,10.6216624 C28.7039315,10.4219513 28.2861155,10.3205366 27.8669521,10.3205366 C27.4879836,10.3205366 27.1109611,10.4045786 26.7763789,10.5714005 C27.840455,11.4878445 28.7739168,12.5892254 29.3771378,13.8852689 C29.5713751,13.7175561 29.7370194,13.5127223 29.860972,13.2850962 C30.0224248,12.9864204 30.1138922,12.6512175 30.1138922,12.3204691 Z" id="reddit"></path>
                    </g>
                </g>
            </g>
        </g>
    </g>
</svg>