<?xml version="1.0" encoding="UTF-8"?>
<svg width="28px" height="28px" viewBox="0 0 28 28" version="1.1" xmlns="http://www.w3.org/2000/svg" xmlns:xlink="http://www.w3.org/1999/xlink">
    <!-- Generator: Sketch 41.2 (35397) - http://www.bohemiancoding.com/sketch -->
    <title>slack-symbol</title>
    <desc>Created with Sketch.</desc>
    <defs></defs>
    <g id="Symbols" stroke="none" stroke-width="1" fill="none" fill-rule="evenodd" opacity="0.5">
        <g id="Footer" transform="translate(-1167.000000, -280.000000)" fill="#FFFFFF">
            <g id="slack-symbol">
                <g transform="translate(1167.000000, 280.000000)">
                    <g id="Capa_1">
                        <path d="M26.8271211,14.0738781 C26.2940523,12.8804917 24.8934568,12.3448434 23.7000703,12.8779123 L22.5608505,13.3886267 L19.6410088,6.86197211 L20.7802285,6.35297731 C21.973615,5.81818886 22.5084034,4.41845316 21.9744748,3.2259265 C21.4414059,2.03168025 20.0416702,1.49603201 18.847424,2.03082046 L17.709064,2.54067505 L17.1992094,1.40059549 C16.6652807,0.207209031 15.265545,-0.326719634 14.0721586,0.207209031 C12.8787721,0.740277908 12.3448434,2.13915382 12.8779123,3.33425985 L13.3877669,4.47347963 L6.86111232,7.39246162 L6.35211752,6.25324184 C5.81818886,5.05813581 4.41845316,4.52592672 3.22506671,5.05813581 C2.03168025,5.59206448 1.49775159,6.99180018 2.03082046,8.18518663 L2.53981526,9.32354662 L1.40145527,9.834261 C0.20806882,10.3681897 -0.326719634,11.7662058 0.207209031,12.960452 C0.740277908,14.1538385 2.14087339,14.6886269 3.33425985,14.1555581 L4.47347963,13.6448437 L7.39160183,20.1723581 L6.25238206,20.6813529 C5.0589956,21.2152815 4.52506694,22.615877 5.05813581,23.8084037 C5.59206448,25.0026499 6.99180018,25.5374384 8.18518663,25.0043695 L9.32354662,24.4945149 L9.83340121,25.6337347 C10.3673299,26.8279809 11.7670656,27.3619096 12.960452,26.8279809 C14.1529787,26.294912 14.6877671,24.8951764 14.1538385,23.7017899 L13.6457035,22.5617103 L20.1723581,19.6435881 L20.6813529,20.7793687 C21.2152815,21.9753346 22.6141574,22.510123 23.8084037,21.9761944 C25.0017901,21.4439853 25.5365786,20.0433898 25.0026499,18.8491435 L24.4936551,17.7107836 L25.6311553,17.2000692 C26.8262613,16.6661405 27.3610498,15.2672646 26.8271211,14.0738781 Z M11.7128989,18.2404133 L8.7939169,11.7120391 L15.3205715,8.7939169 L18.2395535,15.3205715 L11.7128989,18.2404133 Z" id="Shape"></path>
                    </g>
                </g>
            </g>
        </g>
    </g>
</svg>