<?xml version="1.0" encoding="UTF-8"?>
<svg width="93px" height="93px" viewBox="0 0 93 93" version="1.1" xmlns="http://www.w3.org/2000/svg" xmlns:xlink="http://www.w3.org/1999/xlink">
    <!-- Generator: Sketch 41.2 (35397) - http://www.bohemiancoding.com/sketch -->
    <title>success</title>
    <desc>Created with Sketch.</desc>
    <defs></defs>
    <g id="MASTER" stroke="none" stroke-width="1" fill="none" fill-rule="evenodd">
        <g id="register-(e)" transform="translate(-674.000000, -170.000000)" fill="#000000">
            <g id="success" transform="translate(674.000000, 170.000000)">
                <g id="Capa_1">
                    <g id="Group">
                        <path d="M46.5,0 C20.8606154,0 0,20.8588269 0,46.5 C0,72.1411731 20.8606154,93 46.5,93 C72.1393846,93 93,72.1411731 93,46.5 C93,20.8588269 72.1393846,0 46.5,0 Z M46.5,89.4230769 C22.8332885,89.4230769 3.57692308,70.1667115 3.57692308,46.5 C3.57692308,22.8332885 22.8332885,3.57692308 46.5,3.57692308 C70.1667115,3.57692308 89.4230769,22.8332885 89.4230769,46.5 C89.4230769,70.1667115 70.1667115,89.4230769 46.5,89.4230769 Z" id="Shape"></path>
                        <path d="M68.4122308,27.4278462 L40.9253654,58.3503462 L24.366,45.1032115 C23.5969615,44.4861923 22.4684423,44.6131731 21.8532115,45.3822115 C21.2361923,46.1548269 21.3613846,47.2797692 22.1322115,47.8967885 L40.0168269,62.2044808 C40.3459038,62.4673846 40.7411538,62.5961538 41.1346154,62.5961538 C41.6282308,62.5961538 42.1200577,62.3922692 42.4723846,61.9952308 L71.0877692,29.8029231 C71.7441346,29.0660769 71.6779615,27.9339808 70.9393269,27.2794038 C70.1989038,26.62125 69.0703846,26.6874231 68.4122308,27.4278462 Z" id="Shape"></path>
                    </g>
                </g>
            </g>
        </g>
    </g>
</svg>