<?xml version="1.0" encoding="UTF-8"?>
<svg width="24px" height="24px" viewBox="0 0 24 24" version="1.1" xmlns="http://www.w3.org/2000/svg" xmlns:xlink="http://www.w3.org/1999/xlink">
    <!-- Generator: Sketch 41.2 (35397) - http://www.bohemiancoding.com/sketch -->
    <title>Shape Copy 3</title>
    <desc>Created with Sketch.</desc>
    <defs></defs>
    <g id="MASTER" stroke="none" stroke-width="1" fill="none" fill-rule="evenodd">
        <g id="exp-purchase-license-(a)" transform="translate(-600.000000, -211.000000)" fill="#8FCE65">
            <path d="M616.905469,227.8375 L609.229687,220.138281 L607.228125,223.642188 C606.996094,224.047656 606.482813,224.188281 606.077344,223.95625 C605.671875,223.724219 605.53125,223.210938 605.763281,222.805469 L608.313281,218.340625 C608.467969,218.06875 608.753906,217.914062 609.046875,217.914062 C609.189844,217.914062 609.332812,217.949219 609.464062,218.024219 C609.539062,218.06875 609.607031,218.120313 609.663281,218.18125 C609.665625,218.183594 609.670312,218.188281 609.672656,218.190625 L618.098437,226.642188 C618.426562,226.972656 618.426562,227.507031 618.096094,227.835156 C617.767969,228.167969 617.235937,228.167969 616.905469,227.8375 L616.905469,227.8375 Z M612,235 C605.371875,235 600,229.628125 600,223 C600,216.371875 605.371875,211 612,211 C618.628125,211 624,216.371875 624,223 C624,229.628125 618.628125,235 612,235 L612,235 Z M619.291406,215.708594 C618.344531,214.761719 617.240625,214.016406 616.0125,213.498437 C614.742188,212.959375 613.392187,212.6875 612,212.6875 C610.607813,212.6875 609.257812,212.959375 607.9875,213.496094 C606.759375,214.016406 605.657812,214.759375 604.708594,215.70625 C603.761719,216.653125 603.016406,217.757031 602.498438,218.985156 C601.959375,220.257812 601.6875,221.607812 601.6875,223 C601.6875,224.392188 601.959375,225.742188 602.496094,227.0125 C603.016406,228.240625 603.759375,229.342187 604.70625,230.291406 C605.653125,231.238281 606.757031,231.983594 607.985156,232.501563 C609.257812,233.040625 610.607813,233.3125 612,233.3125 C613.392187,233.3125 614.742188,233.040625 616.0125,232.503906 C617.240625,231.983594 618.342188,231.240625 619.291406,230.29375 C620.238281,229.346875 620.983594,228.242969 621.501562,227.014844 C622.040625,225.742188 622.3125,224.392188 622.3125,223 C622.3125,221.607812 622.040625,220.257812 621.503906,218.9875 C620.983594,217.759375 620.240625,216.655469 619.291406,215.708594 L619.291406,215.708594 Z" id="Shape-Copy-3" transform="translate(612.000000, 223.000000) scale(1, -1) translate(-612.000000, -223.000000) "></path>
        </g>
    </g>
</svg>