<?xml version="1.0" encoding="UTF-8"?>
<svg width="18px" height="22px" viewBox="0 0 18 22" version="1.1" xmlns="http://www.w3.org/2000/svg" xmlns:xlink="http://www.w3.org/1999/xlink">
    <!-- Generator: Sketch 57.1 (83088) - https://sketch.com -->
    <title>file</title>
    <desc>Created with Sketch.</desc>
    <g id="Work-Explorer" stroke="none" stroke-width="1" fill="none" fill-rule="evenodd">
        <g id="content" transform="translate(-856.000000, -430.000000)">
            <g id="file" transform="translate(856.000000, 430.000000)">
                <polygon id="Path-2" fill="#43B980" points="1.25 1 12.2424367 1 16.25 5.13439466 16.25 22 1.25 22"></polygon>
                <path d="M17.2488875,4.45281729 C17.247382,4.32064516 17.1946885,4.19113709 17.0945708,4.09394159 L13.0311914,0.150863576 C13.0310142,0.150691701 13.0308814,0.150648732 13.0307043,0.150519825 C12.9347489,0.0574922998 12.8021738,0 12.6558275,0 L1.36754558,0 C0.751296991,0 0.25,0.4864072 0.25,1.08440446 L0.25,20.9155955 C0.25,21.5135498 0.751252711,22 1.3675013,22 L16.1324933,22 C16.7486976,22 17.25,21.5135928 17.25,20.9155955 L17.25,4.45814543 C17.25,4.4562548 17.2490647,4.45466495 17.2488875,4.45281729 Z M13.1866594,1.75875734 L15.4376029,3.94303504 L13.2425411,3.94303504 C13.2117663,3.94303504 13.1866594,3.91867172 13.1866594,3.88880838 L13.1866594,1.75875734 Z M16.1884192,20.9156385 C16.1884192,20.9455018 16.1633123,20.9698222 16.1325375,20.9698222 L1.36754558,20.9698222 C1.33677079,20.9698222 1.31170815,20.9455018 1.31170815,20.9156385 L1.31170815,1.08440446 C1.31170815,1.05454112 1.33677079,1.03022076 1.36754558,1.03022076 L12.1249955,1.03022076 L12.1249955,3.88880838 C12.1249955,4.48676267 12.6263368,4.97329878 13.2425854,4.97329878 L16.1884192,4.97329878 L16.1884192,20.9156385 L16.1884192,20.9156385 Z" id="Shape" fill="#000000" fill-rule="nonzero"></path>
                <path d="M12.742401,7 L3.7576413,7 C3.47731219,7 3.25,7.22384885 3.25,7.5 C3.25,7.77610944 3.47731219,8 3.7576413,8 L12.7423587,8 C13.0226878,8 13.25,7.77610944 13.25,7.5 C13.25,7.22384885 13.0226878,7 12.742401,7 Z" id="Path" fill="#000000" fill-rule="nonzero"></path>
                <path d="M12.742401,10 L3.7576413,10 C3.47731219,10 3.25,10.2238906 3.25,10.5 C3.25,10.7761094 3.47731219,11 3.7576413,11 L12.7423587,11 C13.0226878,11 13.25,10.7761094 13.25,10.5 C13.25,10.2238906 13.0226878,10 12.742401,10 Z" id="Path" fill="#000000" fill-rule="nonzero"></path>
                <path d="M12.742401,13 L3.7576413,13 C3.47731219,13 3.25,13.2238906 3.25,13.5 C3.25,13.7761512 3.47731219,14 3.7576413,14 L12.7423587,14 C13.0226878,14 13.25,13.7761512 13.25,13.5 C13.25,13.2239323 13.0226878,13 12.742401,13 Z" id="Path" fill="#000000" fill-rule="nonzero"></path>
                <path d="M8.69697995,16 L3.80302005,16 C3.49763194,16 3.25,16.2238906 3.25,16.5 C3.25,16.7761512 3.49763194,17 3.80302005,17 L8.69697995,17 C9.00236806,17 9.25,16.7761512 9.25,16.5 C9.25,16.2238488 9.00236806,16 8.69697995,16 Z" id="Path" fill="#000000" fill-rule="nonzero"></path>
            </g>
        </g>
    </g>
</svg>