<?xml version="1.0" encoding="UTF-8"?>
<svg width="25px" height="20px" viewBox="0 0 25 20" version="1.1" xmlns="http://www.w3.org/2000/svg" xmlns:xlink="http://www.w3.org/1999/xlink">
    <!-- Generator: Sketch 50.2 (55047) - http://www.bohemiancoding.com/sketch -->
    <title>twitter logo</title>
    <desc>Created with Sketch.</desc>
    <defs></defs>
    <g id="Main" stroke="none" stroke-width="1" fill="none" fill-rule="evenodd">
        <g id="signup-(error)" transform="translate(-544.000000, -633.000000)" fill="#FFFFFF" fill-rule="nonzero">
            <g id="Group-2" transform="translate(535.000000, 623.000000)">
                <g id="twitter-logo" transform="translate(9.000000, 10.000000)">
                    <path d="M25,2.36751664 C24.0800799,2.76906439 23.0917029,3.04049605 22.054205,3.16253695 C23.1130896,2.53767214 23.9263693,1.54822274 24.3093763,0.369150905 C23.3182162,0.947823788 22.2206597,1.36797328 21.0523026,1.5943666 C20.1167576,0.613088515 18.7837035,0 17.3084623,0 C14.4758995,0 12.1794684,2.26052056 12.1794684,5.04885962 C12.1794684,5.44459131 12.2248296,5.82994064 12.3122806,6.19952414 C8.04959365,5.98889663 4.27025533,3.97885073 1.74057277,0.924078925 C1.29906973,1.66978298 1.04609171,2.53709534 1.04609171,3.46242399 C1.04609171,5.2141604 1.95155869,6.75959528 3.32782553,7.66502439 C2.48705569,7.63878007 1.69618809,7.41166575 1.00473437,7.03347833 C1.00424609,7.05453147 1.00424609,7.07568074 1.00424609,7.09697421 C1.00424609,9.54327189 2.77226021,11.5838881 5.11854469,12.0478262 C4.68822327,12.1631378 4.23505032,12.2250475 3.7672778,12.2250475 C3.43676087,12.2250475 3.11547243,12.1933236 2.80224062,12.1342979 C3.45497372,14.1401139 5.34911065,15.6000865 7.59353986,15.6407027 C5.83817219,16.9950251 3.62660424,17.8021101 1.22353277,17.8021101 C0.809519903,17.8021101 0.401268748,17.7782691 0,17.7314043 C2.26981979,19.1641231 4.96585944,20 7.86233816,20 C17.2964506,20 22.4554737,12.306376 22.4554737,5.63426182 C22.4554737,5.41536687 22.4503956,5.19762551 22.4405812,4.98103776 C23.4428253,4.2692206 24.3124037,3.37998991 25,2.36751664 Z" id="Shape"></path>
                </g>
            </g>
        </g>
    </g>
</svg>