<?xml version="1.0" encoding="UTF-8"?>
<svg width="33px" height="26px" viewBox="0 0 33 26" version="1.1" xmlns="http://www.w3.org/2000/svg" xmlns:xlink="http://www.w3.org/1999/xlink">
    <!-- Generator: Sketch 41.2 (35397) - http://www.bohemiancoding.com/sketch -->
    <title>Capa_1</title>
    <desc>Created with Sketch.</desc>
    <defs></defs>
    <g id="Symbols" stroke="none" stroke-width="1" fill="none" fill-rule="evenodd" opacity="0.5">
        <g id="Footer" transform="translate(-989.000000, -281.000000)" fill="#FFFFFF">
            <g id="twitter-logo-silhouette">
                <g transform="translate(989.000000, 281.000000)">
                    <g id="Capa_1">
                        <path d="M32.2297865,3.08677631 C31.0435513,3.60669116 29.770738,3.95929147 28.4334126,4.11670883 C29.7989128,3.3079003 30.844169,2.02501652 31.3395703,0.501058107 C30.0586996,1.25006679 28.6448547,1.79394325 27.1383755,2.08877524 C25.932023,0.81584074 24.2161029,0.0229718916 22.3128602,0.0229718916 C18.6615203,0.0229718916 15.7009617,2.95134112 15.7009617,6.56100144 C15.7009617,7.07294645 15.759365,7.57296275 15.8721692,8.05110106 C10.3780439,7.77814706 5.50623784,5.17450974 2.24560511,1.21818743 C1.67563292,2.18238179 1.35138652,3.30586877 1.35138652,4.50514737 C1.35138652,6.77415559 2.51950563,8.77620022 4.29182791,9.94750624 C3.20828566,9.91166801 2.18920298,9.61683602 1.29703825,9.126769 L1.29703825,9.20844684 C1.29703825,12.3758592 3.57687434,15.0193457 6.59983873,15.6209905 C6.04598143,15.7684065 5.46194821,15.8500843 4.85774504,15.8500843 C4.4308057,15.8500843 4.01792739,15.8082557 3.61310652,15.7285573 C4.45492537,18.3282357 6.8959104,20.2187026 9.7880071,20.2705326 C7.5262871,22.0235848 4.67447763,23.0654461 1.57699503,23.0654461 C1.04330768,23.0654461 0.517625117,23.0335667 5.26630493e-05,22.9757984 C2.92638035,24.834438 6.40050909,25.9181279 10.1344246,25.9181279 C22.2968507,25.9181279 28.9450341,15.9536922 28.9450341,7.31204165 L28.9228629,6.46541545 C30.2218497,5.54898804 31.3456265,4.39758057 32.2297865,3.08677631 Z" id="Shape"></path>
                    </g>
                </g>
            </g>
        </g>
    </g>
</svg>