<?xml version="1.0" encoding="UTF-8"?>
<svg width="64px" height="53px" viewBox="0 0 64 53" version="1.1" xmlns="http://www.w3.org/2000/svg" xmlns:xlink="http://www.w3.org/1999/xlink">
    <!-- Generator: Sketch 41.2 (35397) - http://www.bohemiancoding.com/sketch -->
    <title>Shape Copy 11</title>
    <desc>Created with Sketch.</desc>
    <defs></defs>
    <g id="MASTER" stroke="none" stroke-width="1" fill="none" fill-rule="evenodd">
        <g id="try-it-out-(upload-file)" transform="translate(-688.000000, -391.000000)" fill="#EEEEEE">
            <path d="M720,413.026314 L719.986017,413.012278 L709.104515,423.934591 L712.284496,427.126519 L717.751422,421.639125 L717.751422,440.942621 C717.751422,442.189699 718.758152,443.2 720,443.2 C721.242129,443.2 722.248578,442.189276 722.248578,440.942551 L722.248578,421.639125 L727.715504,427.12659 L730.895485,423.934662 L720.013983,413.012278 L720,413.026314 Z M720.562145,391.5 C713.904948,391.5 708.037073,394.891464 704.579392,400.046934 C704.380041,400.039246 704.180058,400.034379 703.978881,400.034379 C695.44117,400.034379 688.519906,406.981576 688.519906,415.551432 C688.519906,424.121289 695.44117,430.856889 703.978881,430.856889 C705.290996,430.856889 706.508531,429.846377 706.508531,428.599864 C706.508531,427.388828 705.206886,426.400815 704.014015,426.345518 C697.924865,426.342838 693.017063,421.628193 693.017063,415.551432 C693.017063,410.045982 697.04539,405.484956 702.304814,404.676024 C703.592407,404.583697 706.094937,404.8771 706.094937,404.8771 C706.595015,404.929382 707.190352,404.60273 707.428586,404.14707 C707.428586,404.14707 707.726207,403.545747 708.159761,402.820466 C708.792173,401.762485 709.494854,401.092431 709.494854,401.092431 C712.184083,397.96123 716.146429,396.014052 720.562145,396.014052 C727.736655,396.014052 733.714289,401.153794 735.042285,407.964863 C735.026896,407.97114 735.227747,410.779342 735.227747,410.779342 C735.263786,411.288758 735.708634,411.697851 736.215299,411.692561 C736.215299,411.692561 739.796622,411.663846 739.798871,411.606856 C743.790027,411.746651 746.982937,415.037818 746.982937,419.078035 C746.982937,423.112681 743.798951,426.189219 739.815595,426.342838 L734.063717,426.342838 C733.049129,426.342838 732.226644,427.170784 732.226644,428.178875 L732.226644,429.020852 C732.226644,430.034867 733.058985,430.856889 734.061698,430.856889 L740.588543,430.856889 C746.692098,430.48582 751.480094,425.34361 751.480094,419.078035 C751.480094,412.455851 746.131921,407.087585 739.534522,407.087585 C737.72006,398.203931 729.92164,391.5 720.562145,391.5 Z" id="Shape-Copy-11"></path>
        </g>
    </g>
</svg>