<?xml version="1.0" encoding="UTF-8"?>
<svg width="37px" height="33px" viewBox="0 0 37 33" version="1.1" xmlns="http://www.w3.org/2000/svg" xmlns:xlink="http://www.w3.org/1999/xlink">
    <!-- Generator: Sketch 43.2 (39069) - http://www.bohemiancoding.com/sketch -->
    <title>caution-sign</title>
    <desc>Created with Sketch.</desc>
    <defs></defs>
    <g id="MASTER" stroke="none" stroke-width="1" fill="none" fill-rule="evenodd">
        <g id="home-inside" transform="translate(-245.000000, -625.000000)" fill-rule="nonzero">
            <g id="Alpha-Banner" transform="translate(0.000000, 604.000000)">
                <g id="caution-sign" transform="translate(245.000000, 21.000000)">
                    <path d="M36.4606216,28.6307099 L20.866966,1.42339249 C20.3621563,0.54252901 19.4293316,0 18.4197122,0 C17.4102047,0 16.4772681,0.542416382 15.9724585,1.42339249 L0.378802875,28.6307099 C-0.126230358,29.5115734 -0.126230358,30.5971945 0.37857931,31.4781706 C0.883388977,32.3591468 1.81632553,32.901901 2.82605665,32.901901 L34.0133678,32.901901 C35.0229872,32.901901 35.9560355,32.3592594 36.4608452,31.4781706 C36.9655431,30.5971945 36.9655431,29.5115734 36.4606216,28.6307099 Z" id="Shape" fill="#F6A623"></path>
                    <path d="M16.6198072,12.8950999 L17.4302302,22.2432227 C17.4775142,22.7935231 17.9110066,23.247076 18.4759552,23.2968575 C19.1087558,23.3526084 19.6665504,22.8808098 19.7217709,22.2432227 L20.5321939,12.8950999 C20.5409129,12.7858507 20.5420308,12.6634241 20.5321939,12.5507961 C20.4378495,11.462134 19.4855746,10.6568439 18.4051969,10.7517893 C17.3248193,10.8469599 16.5254628,11.806663 16.6198072,12.8950999 Z" id="Shape" fill="#FFFFFF"></path>
                    <ellipse id="Oval" fill="#FFFFFF" cx="18.2330908" cy="25.4238035" rx="1.62084592" ry="1.6331058"></ellipse>
                </g>
            </g>
        </g>
    </g>
</svg>